<?xml version="1.0" encoding="UTF-8"?>
<svg version="1.1" xmlns="http://www.w3.org/2000/svg" width="150" height="150">
<path d="M0 0 C1.20970459 0.00523682 2.41940918 0.01047363 3.66577148 0.01586914 C4.97094727 0.0190918 6.27612305 0.02231445 7.62084961 0.02563477 C9.00952213 0.03399138 10.39819401 0.04245634 11.78686523 0.05102539 C13.17944179 0.05603873 14.57202005 0.06060193 15.96459961 0.06469727 C19.38456394 0.07653105 22.80444367 0.09301659 26.22436523 0.11352539 C26.90505464 4.6522399 27.33845688 8.95936907 27.28686523 13.55102539 C27.2778418 14.60161133 27.26881836 15.65219727 27.25952148 16.73461914 C27.24791992 17.5196582 27.23631836 18.30469727 27.22436523 19.11352539 C28.50311523 19.11352539 29.78186523 19.11352539 31.09936523 19.11352539 C37.22436523 19.11352539 37.22436523 19.11352539 39.09936523 19.67602539 C41.5449583 20.17952985 42.83954275 19.76393152 45.22436523 19.11352539 C46.89060163 19.07565638 48.5583412 19.06724695 50.22436523 19.11352539 C51.86587013 22.39653519 50.74325148 25.53897572 50.22436523 29.11352539 C51.21436523 28.61852539 51.21436523 28.61852539 52.22436523 28.11352539 C54.11075643 28.02861039 56.00015038 28.00633239 57.88842773 28.01586914 C59.00991211 28.0190918 60.13139648 28.02231445 61.28686523 28.02563477 C62.46249023 28.03401367 63.63811523 28.04239258 64.84936523 28.05102539 C66.03272461 28.05553711 67.21608398 28.06004883 68.43530273 28.06469727 C71.3650403 28.07651072 74.29467796 28.09298282 77.22436523 28.11352539 C78.73584266 31.66371417 79.4409292 33.78354258 78.78686523 37.61352539 C78.35758211 40.48972231 78.21003916 42.05491873 78.91186523 44.92602539 C79.22436523 47.11352539 79.22436523 47.11352539 77.90014648 49.23071289 C73.7375083 52.15975173 69.68152588 51.5773634 64.72436523 51.42602539 C63.77432617 51.41635742 62.82428711 51.40668945 61.84545898 51.39672852 C57.78710308 51.33108703 54.15324284 51.16036279 50.22436523 50.11352539 C48.53878064 50.02298846 46.84987188 49.98343336 45.16186523 49.98852539 C44.30463867 49.98594727 43.44741211 49.98336914 42.56420898 49.98071289 C40.06872322 50.01987404 40.06872322 50.01987404 37.22436523 51.11352539 C35.55615201 50.78802037 33.88936966 50.45506476 32.22436523 50.11352539 C31.23436523 50.60852539 31.23436523 50.60852539 30.22436523 51.11352539 C29.58499023 50.94852539 28.94561523 50.78352539 28.28686523 50.61352539 C26.047711 49.87750136 26.047711 49.87750136 23.22436523 51.11352539 C21.55712311 51.206953 19.88640918 51.244223 18.21655273 51.24633789 C17.22913086 51.24762695 16.24170898 51.24891602 15.22436523 51.25024414 C14.19311523 51.24637695 13.16186523 51.24250977 12.09936523 51.23852539 C10.58729492 51.24432617 10.58729492 51.24432617 9.04467773 51.25024414 C4.50506649 51.24436382 0.05306011 51.16019886 -4.45532227 50.60571289 C-9.5412848 49.94373757 -9.5412848 49.94373757 -17.77563477 50.11352539 C-17.44563477 37.24352539 -17.11563477 24.37352539 -16.77563477 11.11352539 C-12.48563477 11.11352539 -8.19563477 11.11352539 -3.77563477 11.11352539 C-3.79625977 9.48415039 -3.81688477 7.85477539 -3.83813477 6.17602539 C-3.85949544 4.48853198 -3.84768988 2.79961505 -3.77563477 1.11352539 C-2.77563477 0.11352539 -2.77563477 0.11352539 0 0 Z M-8.77563477 13.11352539 C-8.77563477 23.01352539 -8.77563477 32.91352539 -8.77563477 43.11352539 C-8.44563477 43.11352539 -8.11563477 43.11352539 -7.77563477 43.11352539 C-7.77563477 33.21352539 -7.77563477 23.31352539 -7.77563477 13.11352539 C-8.10563477 13.11352539 -8.43563477 13.11352539 -8.77563477 13.11352539 Z M31.22436523 24.11352539 C31.22436523 31.70352539 31.22436523 39.29352539 31.22436523 47.11352539 C31.55436523 47.11352539 31.88436523 47.11352539 32.22436523 47.11352539 C32.22436523 39.52352539 32.22436523 31.93352539 32.22436523 24.11352539 C31.89436523 24.11352539 31.56436523 24.11352539 31.22436523 24.11352539 Z M26.22436523 32.11352539 C27.22436523 34.11352539 27.22436523 34.11352539 27.22436523 34.11352539 Z M26.22436523 36.11352539 C27.22436523 38.11352539 27.22436523 38.11352539 27.22436523 38.11352539 Z M26.22436523 40.11352539 C27.22436523 42.11352539 27.22436523 42.11352539 27.22436523 42.11352539 Z " fill="#8E7548" transform="translate(62.775634765625,36.886474609375)"/>
<path d="M0 0 C10 0 10 0 11.875 0.5625 C14.32059307 1.06600446 15.61517752 0.65040613 18 0 C19.66623639 -0.03786901 21.33397597 -0.04627845 23 0 C24.6415049 3.2830098 23.51888624 6.42545033 23 10 C23.66 9.67 24.32 9.34 25 9 C26.8863912 8.915085 28.77578515 8.892807 30.6640625 8.90234375 C31.78554687 8.90556641 32.90703125 8.90878906 34.0625 8.91210938 C35.238125 8.92048828 36.41375 8.92886719 37.625 8.9375 C38.80835938 8.94201172 39.99171875 8.94652344 41.2109375 8.95117188 C44.14067507 8.96298533 47.07031272 8.97945742 50 9 C51.51147743 12.55018877 52.21656397 14.67001719 51.5625 18.5 C51.13321688 21.37619692 50.98567393 22.94139334 51.6875 25.8125 C52 28 52 28 50.67578125 30.1171875 C46.51314307 33.04622634 42.45716065 32.46383801 37.5 32.3125 C36.54996094 32.30283203 35.59992188 32.29316406 34.62109375 32.28320312 C30.56273785 32.21756164 26.92887761 32.0468374 23 31 C21.31441541 30.90946307 19.62550664 30.86990797 17.9375 30.875 C17.08027344 30.87242188 16.22304687 30.86984375 15.33984375 30.8671875 C12.84435799 30.90634865 12.84435799 30.90634865 10 32 C8.33178677 31.67449498 6.66500443 31.34153937 5 31 C4.34 31.33 3.68 31.66 3 32 C2.01 31.67 1.02 31.34 0 31 C-0.853005 25.13643022 -1.12553159 19.48262044 -1.0625 13.5625 C-1.05798828 12.74845703 -1.05347656 11.93441406 -1.04882812 11.09570312 C-1.0369653 9.06377153 -1.01902903 7.03187712 -1 5 C-1 4.67 -1 4.34 -1 4 C-0.67619874 2.66431979 -0.34342449 1.33076989 0 0 Z M4 5 C4 12.59 4 20.18 4 28 C4.33 28 4.66 28 5 28 C5 20.41 5 12.82 5 5 C4.67 5 4.34 5 4 5 Z " fill="#3F301A" transform="translate(90,56)"/>
<path d="M0 0 C6.93359375 -0.09765625 6.93359375 -0.09765625 9 0 C10 1 10 1 10.11352539 4.51000977 C10.11336626 6.07048422 10.10767142 7.63096393 10.09765625 9.19140625 C10.0962413 10.01124496 10.09482635 10.83108368 10.09336853 11.67576599 C10.08775289 14.30471382 10.07519779 16.93357773 10.0625 19.5625 C10.05748701 21.34049357 10.05292376 23.11848846 10.04882812 24.89648438 C10.03777839 29.26435545 10.02050331 33.63216348 10 38 C9.22140625 38.15210938 8.4428125 38.30421875 7.640625 38.4609375 C5.99873739 38.79611574 4.36461552 39.17649569 2.75 39.625 C2.1725 39.74875 1.595 39.8725 1 40 C0.505 39.505 0.505 39.505 0 39 C-2.07262076 38.91232888 -4.14820294 38.89304127 -6.22265625 38.90234375 C-7.48271484 38.90556641 -8.74277344 38.90878906 -10.04101562 38.91210938 C-11.38151109 38.92046597 -12.72200588 38.92893093 -14.0625 38.9375 C-15.40689942 38.9425134 -16.7513006 38.94707658 -18.09570312 38.95117188 C-21.39717941 38.96300512 -24.69856803 38.97949029 -28 39 C-28.73209843 35.72455616 -29.12047393 32.70966825 -29.09765625 29.35546875 C-29.09443359 28.51435547 -29.09121094 27.67324219 -29.08789062 26.80664062 C-29.07951172 25.94232422 -29.07113281 25.07800781 -29.0625 24.1875 C-29.05798828 23.30384766 -29.05347656 22.42019531 -29.04882812 21.50976562 C-29.03709866 19.33981441 -29.01916495 17.16989828 -29 15 C-23.2650984 12.5282281 -17.81059955 12.73710214 -11.6875 12.8125 C-10.67365234 12.81314453 -9.65980469 12.81378906 -8.61523438 12.81445312 C-1.14048812 12.85951188 -1.14048812 12.85951188 0 14 C0 9.38 0 4.76 0 0 Z M5 2 C5 6.62 5 11.24 5 16 C5.33 16 5.66 16 6 16 C6 11.38 6 6.76 6 2 C5.67 2 5.34 2 5 2 Z M0 18 C1 20 1 20 1 20 Z M0 25 C1 27 1 27 1 27 Z M0 29 C1 31 1 31 1 31 Z " fill="#836A3F" transform="translate(35,48)"/>
<path d="M0 0 C1.20970459 0.00523682 2.41940918 0.01047363 3.66577148 0.01586914 C4.97094727 0.0190918 6.27612305 0.02231445 7.62084961 0.02563477 C9.00952213 0.03399138 10.39819401 0.04245634 11.78686523 0.05102539 C13.17944179 0.05603873 14.57202005 0.06060193 15.96459961 0.06469727 C19.38456394 0.07653105 22.80444367 0.09301659 26.22436523 0.11352539 C27.38452148 7.51586914 27.38452148 7.51586914 27.10327148 11.29711914 C27.05493164 11.99643555 27.0065918 12.69575195 26.95678711 13.41625977 C26.90071289 14.12073242 26.84463867 14.82520508 26.78686523 15.55102539 C26.7346582 16.28256836 26.68245117 17.01411133 26.62866211 17.76782227 C26.50051647 19.55021161 26.36338364 21.33195109 26.22436523 23.11352539 C26.88436523 23.11352539 27.54436523 23.11352539 28.22436523 23.11352539 C26.34936523 28.98852539 26.34936523 28.98852539 25.22436523 30.11352539 C23.22471541 30.20110542 21.22200414 30.22049115 19.22045898 30.21118164 C18.00551758 30.20795898 16.79057617 30.20473633 15.53881836 30.20141602 C14.25942383 30.19303711 12.9800293 30.1846582 11.66186523 30.17602539 C10.37860352 30.17151367 9.0953418 30.16700195 7.77319336 30.16235352 C4.59020501 30.15052085 1.40730761 30.13403607 -1.77563477 30.11352539 C-1.77563477 29.45352539 -1.77563477 28.79352539 -1.77563477 28.11352539 C6.47436523 28.11352539 14.72436523 28.11352539 23.22436523 28.11352539 C23.22436523 27.45352539 23.22436523 26.79352539 23.22436523 26.11352539 C14.97436523 26.11352539 6.72436523 26.11352539 -1.77563477 26.11352539 C-1.77563477 25.45352539 -1.77563477 24.79352539 -1.77563477 24.11352539 C7.13436523 24.11352539 16.04436523 24.11352539 25.22436523 24.11352539 C25.22436523 23.45352539 25.22436523 22.79352539 25.22436523 22.11352539 C16.31436523 22.11352539 7.40436523 22.11352539 -1.77563477 22.11352539 C-1.77563477 21.45352539 -1.77563477 20.79352539 -1.77563477 20.11352539 C7.13436523 20.11352539 16.04436523 20.11352539 25.22436523 20.11352539 C25.22436523 19.45352539 25.22436523 18.79352539 25.22436523 18.11352539 C15.65436523 18.44352539 6.08436523 18.77352539 -3.77563477 19.11352539 C-3.79625977 16.16415039 -3.81688477 13.21477539 -3.83813477 10.17602539 C-3.84723877 9.24540283 -3.85634277 8.31478027 -3.86572266 7.35595703 C-3.86822021 6.62755615 -3.87071777 5.89915527 -3.87329102 5.14868164 C-3.87852783 4.39981689 -3.88376465 3.65095215 -3.88916016 2.87939453 C-3.69685602 -0.11186528 -3.01260716 0.12321773 0 0 Z " fill="#987C4F" transform="translate(62.775634765625,36.886474609375)"/>
<path d="M0 0 C1.12148437 0.00322266 2.24296875 0.00644531 3.3984375 0.00976562 C4.5740625 0.01814453 5.7496875 0.02652344 6.9609375 0.03515625 C8.14429688 0.03966797 9.32765625 0.04417969 10.546875 0.04882812 C13.47661257 0.06064158 16.40625022 0.07711367 19.3359375 0.09765625 C20.84741493 3.64784502 21.55250147 5.76767344 20.8984375 9.59765625 C20.46915438 12.47385317 20.32161143 14.03904959 21.0234375 16.91015625 C21.3359375 19.09765625 21.3359375 19.09765625 20.01171875 21.2109375 C15.8504243 24.1451057 11.79717892 23.600558 6.8359375 23.47265625 C5.88589844 23.47136719 4.93585938 23.47007813 3.95703125 23.46875 C-0.7920382 23.4086352 -3.29416178 23.28260661 -7.6640625 21.09765625 C-7.6640625 14.49765625 -7.6640625 7.89765625 -7.6640625 1.09765625 C-5.00228029 -0.23323485 -2.97666854 -0.01503368 0 0 Z " fill="#A1885F" transform="translate(120.6640625,64.90234375)"/>
<path d="M0 0 C4.62 0 9.24 0 14 0 C14.02308663 4.26846127 14.04296038 8.53670159 14.05493164 12.80517578 C14.05992785 14.25407652 14.06672709 15.70297231 14.07543945 17.15185547 C14.16225376 31.97156783 14.16225376 31.97156783 13 39 C8.38 39 3.76 39 -1 39 C-0.67 26.13 -0.34 13.26 0 0 Z M8 2 C8 11.9 8 21.8 8 32 C8.33 32 8.66 32 9 32 C9 22.1 9 12.2 9 2 C8.67 2 8.34 2 8 2 Z " fill="#433521" transform="translate(46,48)"/>
<path d="M0 0 C1.134375 0.020625 2.26875 0.04125 3.4375 0.0625 C2.7775 2.0425 2.1175 4.0225 1.4375 6.0625 C3.4175 6.0625 5.3975 6.0625 7.4375 6.0625 C6.6611068 2.9879644 6.6611068 2.9879644 4.4375 1.0625 C5.4375 0.0625 5.4375 0.0625 8.5 0 C9.9540625 0.0309375 9.9540625 0.0309375 11.4375 0.0625 C11.4375 4.39583333 11.4375 8.72916667 11.4375 13.0625 C12.4275 13.0625 13.4175 13.0625 14.4375 13.0625 C14.540625 12.216875 14.64375 11.37125 14.75 10.5 C15.5203854 6.64807299 16.80024514 3.62174969 18.4375 0.0625 C19.0975 0.0625 19.7575 0.0625 20.4375 0.0625 C20.77523438 0.91714844 21.11296875 1.77179688 21.4609375 2.65234375 C21.90695313 3.75707031 22.35296875 4.86179687 22.8125 6 C23.25335938 7.10214844 23.69421875 8.20429687 24.1484375 9.33984375 C25.14791432 12.17480186 25.14791432 12.17480186 27.4375 13.0625 C27.4375 12.37542969 27.4375 11.68835938 27.4375 10.98046875 C27.4375 7.34114583 27.4375 3.70182292 27.4375 0.0625 C31.14542809 -0.22078822 34.73954313 -0.39019973 38.4375 0.0625 C40.70047338 2.51944253 41.4375 3.7421254 41.4375 7.0625 C42.0975 7.3925 42.7575 7.7225 43.4375 8.0625 C44.79218103 6.70781897 45.55997456 5.16778707 46.5 3.5 C47.4590625 1.7984375 47.4590625 1.7984375 48.4375 0.0625 C49.7575 0.0625 51.0775 0.0625 52.4375 0.0625 C52.4375 1.0525 52.4375 2.0425 52.4375 3.0625 C51.7775 3.0625 51.1175 3.0625 50.4375 3.0625 C50.4375 6.3625 50.4375 9.6625 50.4375 13.0625 C51.0975 13.0625 51.7575 13.0625 52.4375 13.0625 C52.1075 14.0525 51.7775 15.0425 51.4375 16.0625 C49.4575 16.0625 47.4775 16.0625 45.4375 16.0625 C45.4375 15.0725 45.4375 14.0825 45.4375 13.0625 C46.0975 13.0625 46.7575 13.0625 47.4375 13.0625 C46.9425 11.5775 46.9425 11.5775 46.4375 10.0625 C45.756875 11.3 45.756875 11.3 45.0625 12.5625 C44.52625 13.3875 43.99 14.2125 43.4375 15.0625 C42.7775 15.0625 42.1175 15.0625 41.4375 15.0625 C40.7775 13.4125 40.1175 11.7625 39.4375 10.0625 C39.1075 11.0525 38.7775 12.0425 38.4375 13.0625 C39.0975 13.0625 39.7575 13.0625 40.4375 13.0625 C40.4375 13.7225 40.4375 14.3825 40.4375 15.0625 C33.24792579 16.50041484 26.59915702 16.2561095 19.4375 15.0625 C20.0975 13.7425 20.7575 12.4225 21.4375 11.0625 C20.1175 11.0625 18.7975 11.0625 17.4375 11.0625 C17.4375 12.3825 17.4375 13.7025 17.4375 15.0625 C13.4775 15.0625 9.5175 15.0625 5.4375 15.0625 C5.4375 14.4025 5.4375 13.7425 5.4375 13.0625 C6.0975 13.0625 6.7575 13.0625 7.4375 13.0625 C7.4375 11.7425 7.4375 10.4225 7.4375 9.0625 C5.4575 9.0625 3.4775 9.0625 1.4375 9.0625 C2.0975 11.0425 2.7575 13.0225 3.4375 15.0625 C0.5625 15.6875 0.5625 15.6875 -2.5625 16.0625 C-3.2225 15.4025 -3.8825 14.7425 -4.5625 14.0625 C-4.2325 13.175625 -3.9025 12.28875 -3.5625 11.375 C-2.64114193 8.32300138 -2.21300298 6.2079732 -2.5625 3.0625 C-3.2225 2.4025 -3.8825 1.7425 -4.5625 1.0625 C-3.5625 0.0625 -3.5625 0.0625 0 0 Z M32.4375 2.0625 C31.17800951 3.09656673 31.17800951 3.09656673 31.33984375 5.34765625 C31.35144531 6.26417969 31.36304688 7.18070312 31.375 8.125 C31.38402344 9.04410156 31.39304688 9.96320313 31.40234375 10.91015625 C31.41394531 11.62042969 31.42554688 12.33070312 31.4375 13.0625 C32.4275 13.3925 33.4175 13.7225 34.4375 14.0625 C36.76340854 10.42826791 36.60015833 7.29161669 36.4375 3.0625 C34.49146726 2.47179986 34.49146726 2.47179986 32.4375 2.0625 Z M18.4375 6.0625 C19.4375 8.0625 19.4375 8.0625 19.4375 8.0625 Z " fill="#39342A" transform="translate(10.5625,88.9375)"/>
<path d="M0 0 C1.47906892 -0.02689216 2.95827483 -0.04634621 4.4375 -0.0625 C5.26121094 -0.07410156 6.08492187 -0.08570313 6.93359375 -0.09765625 C9 0 9 0 10 1 C10.08858646 3.73894085 10.11523479 6.4525327 10.09765625 9.19140625 C10.0962413 10.01124496 10.09482635 10.83108368 10.09336853 11.67576599 C10.08775289 14.30471382 10.07519779 16.93357773 10.0625 19.5625 C10.05748701 21.34049357 10.05292376 23.11848846 10.04882812 24.89648438 C10.03777839 29.26435545 10.02050331 33.63216348 10 38 C6.71303767 38.79953138 5.28976808 39.09658936 2 38 C1.93941406 37.37351563 1.87882812 36.74703125 1.81640625 36.1015625 C1.73261719 35.28429687 1.64882813 34.46703125 1.5625 33.625 C1.48128906 32.81289062 1.40007813 32.00078125 1.31640625 31.1640625 C1.10909886 28.95727195 1.10909886 28.95727195 0 27 C-0.08527628 24.96767366 -0.10716135 22.93252994 -0.09765625 20.8984375 C-0.09443359 19.68671875 -0.09121094 18.475 -0.08789062 17.2265625 C-0.07951172 15.95554687 -0.07113281 14.68453125 -0.0625 13.375 C-0.05798828 12.09625 -0.05347656 10.8175 -0.04882812 9.5 C-0.03701203 6.33328708 -0.02053815 3.16666644 0 0 Z M5 2 C5 6.62 5 11.24 5 16 C5.33 16 5.66 16 6 16 C6 11.38 6 6.76 6 2 C5.67 2 5.34 2 5 2 Z " fill="#463A29" transform="translate(35,48)"/>
<path d="M0 0 C3.66666667 0 7.33333333 0 11 0 C11.7115625 -0.02320312 12.423125 -0.04640625 13.15625 -0.0703125 C13.9296875 -0.08835937 14.703125 -0.10640625 15.5 -0.125 C16.2734375 -0.14820312 17.046875 -0.17140625 17.84375 -0.1953125 C20 0 20 0 23 2 C23.8125 3.9375 23.8125 3.9375 24 6 C23.01 7.485 23.01 7.485 22 9 C23.32 10.32 24.64 11.64 26 13 C26.02708567 11.39592672 26.04643483 9.7917215 26.0625 8.1875 C26.07410156 7.29417969 26.08570312 6.40085937 26.09765625 5.48046875 C26.11009967 2.86586209 26.11009967 2.86586209 25 0 C26.98 0 28.96 0 31 0 C32.125 3.75 32.125 3.75 31 6 C30.63858045 8.32914823 30.30300475 10.66253478 30 13 C30.66 13 31.32 13 32 13 C32 13.66 32 14.32 32 15 C23.54330709 16.40944882 23.54330709 16.40944882 20 14 C19.67 14 19.34 14 19 14 C18.67 14.33 18.34 14.66 18 15 C16.01819452 15 14.03623891 14.99657678 12.0546875 14.96484375 C9.88752898 14.93589126 9.88752898 14.93589126 7.375 15.5625 C4.38302032 16.11365415 1.95594809 15.61868681 -1 15 C-0.67 14.34 -0.34 13.68 0 13 C0.07051689 11.35554606 0.08425094 9.70832146 0.0625 8.0625 C0.05347656 7.18722656 0.04445313 6.31195313 0.03515625 5.41015625 C0.02355469 4.61480469 0.01195313 3.81945312 0 3 C0 2.01 0 1.02 0 0 Z M11 2 C9.16304566 6.33927969 9.16304566 6.33927969 9.875 10.875 C10.24625 11.57625 10.6175 12.2775 11 13 C11.99 13 12.98 13 14 13 C14 9.7 14 6.4 14 3 C13.01 2.67 12.02 2.34 11 2 Z M4 3 C4 3.99 4 4.98 4 6 C4.99 6 5.98 6 7 6 C7 5.01 7 4.02 7 3 C6.01 3 5.02 3 4 3 Z M17 3 C17 4.65 17 6.3 17 8 C17.99 7.67 18.98 7.34 20 7 C20 5.68 20 4.36 20 3 C19.01 3 18.02 3 17 3 Z M4 9 C4 10.32 4 11.64 4 13 C5.32 12.34 6.64 11.68 8 11 C8 10.34 8 9.68 8 9 C6.68 9 5.36 9 4 9 Z M17 9 C18 11 18 11 18 11 Z " fill="#453C2F" transform="translate(65,89)"/>
<path d="M0 0 C0.99 0.33 1.98 0.66 3 1 C3 1.66 3 2.32 3 3 C3.66 3 4.32 3 5 3 C5 3.99 5 4.98 5 6 C5.66 6 6.32 6 7 6 C7.226875 5.195625 7.45375 4.39125 7.6875 3.5625 C8.120625 2.716875 8.55375 1.87125 9 1 C12.37318679 0.02568545 15.58726101 -0.11909656 19.08203125 -0.09765625 C20.01337891 -0.09443359 20.94472656 -0.09121094 21.90429688 -0.08789062 C23.34385742 -0.07532227 23.34385742 -0.07532227 24.8125 -0.0625 C25.79154297 -0.05798828 26.77058594 -0.05347656 27.77929688 -0.04882812 C30.18626111 -0.03708684 32.59309857 -0.02066419 35 0 C35.495 1.98 35.495 1.98 36 4 C33.69 3.67 31.38 3.34 29 3 C29 3.66 29 4.32 29 5 C30.32 5 31.64 5 33 5 C33 5.99 33 6.98 33 8 C32.34 8.33 31.68 8.66 31 9 C33.475 9.495 33.475 9.495 36 10 C36.495 11.485 36.495 11.485 37 13 C35.54176788 13.0270043 34.08339325 13.04639787 32.625 13.0625 C31.81289062 13.07410156 31.00078125 13.08570312 30.1640625 13.09765625 C28 13 28 13 26 12 C26 9.36 26 6.72 26 4 C25.01 3.67 24.02 3.34 23 3 C23 5.97 23 8.94 23 12 C22.01 12 21.02 12 20 12 C19.67 9.36 19.34 6.72 19 4 C18.01 4.495 18.01 4.495 17 5 C17 7.64 17 10.28 17 13 C15.68 12.67 14.36 12.34 13 12 C13 9.69 13 7.38 13 5 C12.67 7.31 12.34 9.62 12 12 C11.34 12 10.68 12 10 12 C9.34 10.68 8.68 9.36 8 8 C7.67 8.66 7.34 9.32 7 10 C6.34 10 5.68 10 5 10 C4.34 9.01 3.68 8.02 3 7 C2.67 8.65 2.34 10.3 2 12 C1.34 12 0.68 12 0 12 C-0.92844389 7.66726186 -0.92844389 4.33273814 0 0 Z " fill="#6A604D" transform="translate(57,107)"/>
<path d="M0 0 C1.39025391 0.01353516 1.39025391 0.01353516 2.80859375 0.02734375 C5.08100077 0.05077063 7.3528618 0.08357252 9.625 0.125 C9.625 0.785 9.625 1.445 9.625 2.125 C1.705 2.125 -6.215 2.125 -14.375 2.125 C-14.375 2.785 -14.375 3.445 -14.375 4.125 C-6.125 4.125 2.125 4.125 10.625 4.125 C10.625 4.785 10.625 5.445 10.625 6.125 C2.375 6.125 -5.875 6.125 -14.375 6.125 C-14.375 6.785 -14.375 7.445 -14.375 8.125 C-5.795 8.125 2.785 8.125 11.625 8.125 C11.625 8.785 11.625 9.445 11.625 10.125 C3.045 10.125 -5.535 10.125 -14.375 10.125 C-14.375 10.785 -14.375 11.445 -14.375 12.125 C-6.125 12.125 2.125 12.125 10.625 12.125 C10.625 12.785 10.625 13.445 10.625 14.125 C2.375 14.125 -5.875 14.125 -14.375 14.125 C-14.375 14.785 -14.375 15.445 -14.375 16.125 C-5.795 16.125 2.785 16.125 11.625 16.125 C11.295 17.115 10.965 18.105 10.625 19.125 C-2.245 18.63 -2.245 18.63 -15.375 18.125 C-16.15799608 14.2100196 -16.48465159 11.22608218 -16.4375 7.3125 C-16.42847656 6.33667969 -16.41945313 5.36085938 -16.41015625 4.35546875 C-16.39855469 3.61941406 -16.38695312 2.88335937 -16.375 2.125 C-10.8647515 -0.19992213 -5.86387115 -0.10874511 0 0 Z " fill="#A28B5B" transform="translate(22.375,60.875)"/>
<path d="M0 0 C1.16781006 0.00523682 2.33562012 0.01047363 3.53881836 0.01586914 C4.79887695 0.0190918 6.05893555 0.02231445 7.35717773 0.02563477 C8.6976732 0.03399136 10.03816799 0.04245632 11.37866211 0.05102539 C12.72306153 0.05603879 14.06746271 0.06060197 15.41186523 0.06469727 C18.71334151 0.07653051 22.01473014 0.09301568 25.31616211 0.11352539 C25.31616211 0.77352539 25.31616211 1.43352539 25.31616211 2.11352539 C14.92116211 2.60852539 14.92116211 2.60852539 4.31616211 3.11352539 C11.24616211 3.44352539 18.17616211 3.77352539 25.31616211 4.11352539 C24.98616211 4.77352539 24.65616211 5.43352539 24.31616211 6.11352539 C20.35821125 6.30977638 16.39979276 6.49404521 12.44116211 6.67602539 C10.74926758 6.76013672 10.74926758 6.76013672 9.02319336 6.84594727 C7.94682617 6.89428711 6.87045898 6.94262695 5.76147461 6.99243164 C4.26898193 7.06312866 4.26898193 7.06312866 2.74633789 7.13525391 C0.31616211 7.11352539 0.31616211 7.11352539 -1.68383789 6.11352539 C-1.68383789 6.77352539 -1.68383789 7.43352539 -1.68383789 8.11352539 C7.22616211 8.11352539 16.13616211 8.11352539 25.31616211 8.11352539 C25.31616211 8.77352539 25.31616211 9.43352539 25.31616211 10.11352539 C16.40616211 10.11352539 7.49616211 10.11352539 -1.68383789 10.11352539 C-1.68383789 10.77352539 -1.68383789 11.43352539 -1.68383789 12.11352539 C7.22616211 12.11352539 16.13616211 12.11352539 25.31616211 12.11352539 C25.31616211 12.77352539 25.31616211 13.43352539 25.31616211 14.11352539 C15.74616211 14.44352539 6.17616211 14.77352539 -3.68383789 15.11352539 C-3.68383789 0.15582504 -3.68383789 0.15582504 0 0 Z " fill="#9F8458" transform="translate(62.683837890625,40.886474609375)"/>
<path d="M0 0 C9.01076716 -0.78734859 9.01076716 -0.78734859 13.0625 2.4375 C13.701875 3.283125 14.34125 4.12875 15 5 C15.33 5.33 15.66 5.66 16 6 C16.309375 5.195625 16.61875 4.39125 16.9375 3.5625 C19.32586104 0.59514234 19.93660406 0.55054727 23.5625 0.125 C27.63480742 -0.18259629 27.63480742 -0.18259629 30 1 C30 2.32 30 3.64 30 5 C29.443125 4.649375 28.88625 4.29875 28.3125 3.9375 C25.46113217 2.78154007 23.91482778 3.19032562 21 4 C20.67 6.64 20.34 9.28 20 12 C22.97 12.495 22.97 12.495 26 13 C25.34 11.35 24.68 9.7 24 8 C26.46278801 6.768606 28.2795055 6.92840804 31 7 C31 9.83967231 30.59732819 12.23735711 30 15 C22.77910448 16.34626866 22.77910448 16.34626866 19.1875 14.75 C17.3168092 13.25344736 15.60624467 11.77532306 14 10 C13.76152344 10.63292969 13.52304688 11.26585938 13.27734375 11.91796875 C12 14 12 14 9.94140625 14.86328125 C8.76384766 15.08564453 8.76384766 15.08564453 7.5625 15.3125 C6.38880859 15.55419922 6.38880859 15.55419922 5.19140625 15.80078125 C3 16 3 16 0 15 C0 14.34 0 13.68 0 13 C0.66 13 1.32 13 2 13 C1.85851011 11.3954444 1.71164314 9.79136233 1.5625 8.1875 C1.48128906 7.29417969 1.40007812 6.40085937 1.31640625 5.48046875 C1.06510233 2.87256441 1.06510233 2.87256441 0 0 Z M5 3 C5 6.3 5 9.6 5 13 C6.98 12.67 8.96 12.34 11 12 C11.68493373 9.14221967 11.68493373 9.14221967 12 6 C11.34 5.01 10.68 4.02 10 3 C8.35 3 6.7 3 5 3 Z " fill="#383228" transform="translate(98,89)"/>
<path d="M0 0 C6.15234375 -0.09765625 6.15234375 -0.09765625 8 0 C10.71276838 2.71276838 9.23516672 10.7829499 9.25 14.4375 C9.270625 15.70400391 9.29125 16.97050781 9.3125 18.27539062 C9.31765625 19.48259766 9.3228125 20.68980469 9.328125 21.93359375 C9.34214355 23.6050647 9.34214355 23.6050647 9.35644531 25.31030273 C9.23881836 26.19790283 9.12119141 27.08550293 9 28 C8.01 28.66 7.02 29.32 6 30 C4 28 4 28 3.8046875 25.8359375 C3.86979167 23.55729167 3.93489583 21.27864583 4 19 C3.67 22.63 3.34 26.26 3 30 C2.34 30 1.68 30 1 30 C0.93941406 28.84242187 0.87882812 27.68484375 0.81640625 26.4921875 C0.73194498 24.95311543 0.64729982 23.41405345 0.5625 21.875 C0.52318359 21.11445312 0.48386719 20.35390625 0.44335938 19.5703125 C0.25298267 16.17282045 -0.01235393 12.9291062 -0.59765625 9.5703125 C-1 7 -1 7 0 5 C-0.33 4.67 -0.66 4.34 -1 4 C-0.5625 1.9375 -0.5625 1.9375 0 0 Z " fill="#453924" transform="translate(90,56)"/>
<path d="M0 0 C7.59 0 15.18 0 23 0 C23 0.33 23 0.66 23 1 C23.969375 1.2475 24.93875 1.495 25.9375 1.75 C29 3 29 3 29.9375 5.0625 C29.958125 5.701875 29.97875 6.34125 30 7 C29 8 29 8 26.31616211 8.11352539 C25.14835205 8.10828857 23.98054199 8.10305176 22.77734375 8.09765625 C21.51728516 8.09443359 20.25722656 8.09121094 18.95898438 8.08789062 C17.61848891 8.07953403 16.27799412 8.07106907 14.9375 8.0625 C13.59310058 8.0574866 12.2486994 8.05292342 10.90429688 8.04882812 C7.60282059 8.03699488 4.30143197 8.02050971 1 8 C0.40267181 5.23735711 0 2.83967231 0 0 Z " fill="#877049" transform="translate(6,79)"/>
<path d="M0 0 C0.66 0.66 1.32 1.32 2 2 C3.32 1.34 4.64 0.68 6 0 C6 12.21 6 24.42 6 37 C5.34 36.67 4.68 36.34 4 36 C3.39892255 32.68273295 3.25566515 29.36625785 3 26 C2.34 29.3 1.68 32.6 1 36 C0.67 36 0.34 36 0 36 C0 24.12 0 12.24 0 0 Z " fill="#3C2E16" transform="translate(47,49)"/>
<path d="M0 0 C2.23551759 3.35327639 2.17283528 3.90743657 1.625 7.6875 C1.45871094 8.89986328 1.45871094 8.89986328 1.2890625 10.13671875 C1.19367188 10.75160156 1.09828125 11.36648437 1 12 C-0.45823212 12.0270043 -1.91660675 12.04639787 -3.375 12.0625 C-4.18710938 12.07410156 -4.99921875 12.08570312 -5.8359375 12.09765625 C-8 12 -8 12 -10 11 C-12.55157655 10.9283265 -15.07472971 10.90691558 -17.625 10.9375 C-18.68460937 10.94426758 -18.68460937 10.94426758 -19.765625 10.95117188 C-21.51045275 10.96296125 -23.255237 10.98089676 -25 11 C-25 10.34 -25 9.68 -25 9 C-17.08 9 -9.16 9 -1 9 C-1 8.34 -1 7.68 -1 7 C-8.92 7 -16.84 7 -25 7 C-25 6.34 -25 5.68 -25 5 C-17.08 5 -9.16 5 -1 5 C-1 4.34 -1 3.68 -1 3 C-8.92 3 -16.84 3 -25 3 C-25 2.34 -25 1.68 -25 1 C-20.8761323 0.74598399 -16.75114808 0.52599895 -12.625 0.3125 C-11.449375 0.23966797 -10.27375 0.16683594 -9.0625 0.09179688 C-7.94101563 0.03701172 -6.81953125 -0.01777344 -5.6640625 -0.07421875 C-4.62717285 -0.13182373 -3.5902832 -0.18942871 -2.52197266 -0.2487793 C-1.68972168 -0.16668213 -0.8574707 -0.08458496 0 0 Z " fill="#85673B" transform="translate(140,70)"/>
<path d="M0 0 C0.33 0 0.66 0 1 0 C1.11269443 6.1105424 0.89604368 11.95170514 0 18 C0.99 17.67 1.98 17.34 3 17 C3.33 15.35 3.66 13.7 4 12 C5.75994274 15.16789693 6.24872886 17.24364431 7 21 C7.33 15.06 7.66 9.12 8 3 C10.25 7.5 10.25 7.5 9.9765625 11.109375 C9.925 11.86347656 9.8734375 12.61757812 9.8203125 13.39453125 C9.75585938 14.17183594 9.69140625 14.94914062 9.625 15.75 C9.56828125 16.54277344 9.5115625 17.33554688 9.453125 18.15234375 C9.31216305 20.10231735 9.1574288 22.05128671 9 24 C8.31292969 23.98839844 7.62585938 23.97679688 6.91796875 23.96484375 C6.01691406 23.95582031 5.11585937 23.94679688 4.1875 23.9375 C3.29417969 23.92589844 2.40085937 23.91429688 1.48046875 23.90234375 C-1.13413791 23.88990033 -1.13413791 23.88990033 -4 25 C-5.66821323 24.67449498 -7.33499557 24.34153937 -9 24 C-9.66 24.33 -10.32 24.66 -11 25 C-11.99 24.67 -12.98 24.34 -14 24 C-15.91304348 10.36956522 -15.91304348 10.36956522 -13 6 C-13 11.61 -13 17.22 -13 23 C-12.34 23 -11.68 23 -11 23 C-11.2784375 22.2265625 -11.2784375 22.2265625 -11.5625 21.4375 C-12.15419517 18.14091261 -11.567267 15.27754265 -11 12 C-10.67 12 -10.34 12 -10 12 C-10 15.3 -10 18.6 -10 22 C-8.68 21.67 -7.36 21.34 -6 21 C-4.88176185 18.76352369 -4.80603939 17.35108471 -4.68359375 14.8671875 C-4.64169922 14.06152344 -4.59980469 13.25585938 -4.55664062 12.42578125 C-4.51732422 11.58402344 -4.47800781 10.74226563 -4.4375 9.875 C-4.39431641 9.02550781 -4.35113281 8.17601563 -4.30664062 7.30078125 C-4.20045764 5.20071777 -4.09971503 3.10038052 -4 1 C-3.67 1 -3.34 1 -3 1 C-2.67 7.93 -2.34 14.86 -2 22 C-1.34 14.74 -0.68 7.48 0 0 Z " fill="#564B34" transform="translate(104,63)"/>
<path d="M0 0 C1.25159912 0.00523682 2.50319824 0.01047363 3.79272461 0.01586914 C4.78942421 0.01799156 4.78942421 0.01799156 5.80625916 0.02015686 C7.93590735 0.02577021 10.06545175 0.03832485 12.19506836 0.05102539 C13.63582205 0.05603868 15.07657739 0.06060188 16.51733398 0.06469727 C20.05577938 0.07574394 23.59416375 0.09301747 27.13256836 0.11352539 C27.46256836 1.43352539 27.79256836 2.75352539 28.13256836 4.11352539 C24.60952438 6.309806 21.93186579 6.28330357 17.83569336 6.09008789 C16.63041992 6.03852539 15.42514648 5.98696289 14.18334961 5.93383789 C12.9290918 5.86938477 11.67483398 5.80493164 10.38256836 5.73852539 C9.1128418 5.68180664 7.84311523 5.62508789 6.53491211 5.56665039 C3.40022221 5.42523581 0.26634 5.27382548 -2.86743164 5.11352539 C-3.42993164 3.17602539 -3.42993164 3.17602539 -3.86743164 1.11352539 C-2.86743164 0.11352539 -2.86743164 0.11352539 0 0 Z " fill="#8D785C" transform="translate(9.867431640625,109.886474609375)"/>
<path d="M0 0 C1.29349365 0.00523682 2.5869873 0.01047363 3.91967773 0.01586914 C4.9496714 0.01799156 4.9496714 0.01799156 6.00047302 0.02015686 C8.20144949 0.0257706 10.40232557 0.03832532 12.60327148 0.05102539 C14.09220231 0.05603863 15.58113473 0.06060184 17.07006836 0.06469727 C20.72700223 0.07574446 24.38387707 0.09301826 28.04077148 0.11352539 C27.71077148 1.76352539 27.38077148 3.41352539 27.04077148 5.11352539 C17.14077148 5.11352539 7.24077148 5.11352539 -2.95922852 5.11352539 C-3.28922852 3.79352539 -3.61922852 2.47352539 -3.95922852 1.11352539 C-2.95922852 0.11352539 -2.95922852 0.11352539 0 0 Z " fill="#836D4B" transform="translate(112.959228515625,109.886474609375)"/>
<path d="M0 0 C2.64 0 5.28 0 8 0 C8 10.89 8 21.78 8 33 C8.66 33 9.32 33 10 33 C10 34.65 10 36.3 10 38 C5.79405774 38.72795155 3.19895255 39.04973814 -1 38 C-0.67 25.46 -0.34 12.92 0 0 Z M1 1 C1 12.88 1 24.76 1 37 C2.46132217 34.07735566 3.34099246 32.07536854 4 29 C4.1953125 31.05078125 4.390625 33.1015625 4.5859375 35.15234375 C4.72257812 35.76207031 4.85921875 36.37179688 5 37 C5.66 37.33 6.32 37.66 7 38 C7 25.79 7 13.58 7 1 C5.02 1.99 5.02 1.99 3 3 C2.34 2.34 1.68 1.68 1 1 Z " fill="#4A422C" transform="translate(46,48)"/>
<path d="M0 0 C2.64 0 5.28 0 8 0 C9.34876101 2.69752203 8.70218755 4.7264603 8.29345703 7.62890625 C7.76451851 11.90265912 7.62811872 16.20014161 7.4375 20.5 C7.37272461 21.87671875 7.37272461 21.87671875 7.30664062 23.28125 C7.20166544 25.52072061 7.09950752 27.76028092 7 30 C4.64046906 27.64046906 4.50858587 26.22104383 4 23 C3.34 23.33 2.68 23.66 2 24 C1.97494385 23.41508789 1.9498877 22.83017578 1.92407227 22.22753906 C1.80777038 19.56815529 1.68519933 16.90909597 1.5625 14.25 C1.50352539 12.86941406 1.50352539 12.86941406 1.44335938 11.4609375 C1.40146484 10.57148437 1.35957031 9.68203125 1.31640625 8.765625 C1.27974854 7.94868164 1.24309082 7.13173828 1.20532227 6.29003906 C1.00865725 4.0965577 0.59699406 2.11603587 0 0 Z " fill="#45361A" transform="translate(105,56)"/>
<path d="M0 0 C0.79148438 -0.01417969 1.58296875 -0.02835937 2.3984375 -0.04296875 C4.625 0.1875 4.625 0.1875 7.625 2.1875 C6.635 3.6725 6.635 3.6725 5.625 5.1875 C5.94696657 7.69883923 6.55439503 9.96284783 7.3125 12.375 C7.415625 12.973125 7.51875 13.57125 7.625 14.1875 C6.965 14.8475 6.305 15.5075 5.625 16.1875 C3.0234375 16.1640625 3.0234375 16.1640625 0 15.8125 C-1.00289062 15.70164062 -2.00578125 15.59078125 -3.0390625 15.4765625 C-4.19535156 15.33347656 -4.19535156 15.33347656 -5.375 15.1875 C-5.045 14.5275 -4.715 13.8675 -4.375 13.1875 C-4.1474985 11.31693209 -3.96537189 9.44064042 -3.8125 7.5625 C-3.72871094 6.55960937 -3.64492187 5.55671875 -3.55859375 4.5234375 C-3.49800781 3.75257812 -3.43742188 2.98171875 -3.375 2.1875 C-4.035 1.8575 -4.695 1.5275 -5.375 1.1875 C-3.79539731 -0.39210269 -2.17963184 0.01763456 0 0 Z M1.625 3.1875 C1.955 4.5075 2.285 5.8275 2.625 7.1875 C2.625 6.5275 2.625 5.8675 2.625 5.1875 C3.285 4.8575 3.945 4.5275 4.625 4.1875 C3.635 3.8575 2.645 3.5275 1.625 3.1875 Z M1.625 9.1875 C0.965 10.5075 0.305 11.8275 -0.375 13.1875 C0.945 13.1875 2.265 13.1875 3.625 13.1875 C2.965 11.8675 2.305 10.5475 1.625 9.1875 Z " fill="#444033" transform="translate(134.375,88.8125)"/>
<path d="M0 0 C9.57 0 19.14 0 29 0 C29.33 1.98 29.66 3.96 30 6 C29.34 6 28.68 6 28 6 C28 5.34 28 4.68 28 4 C18.43 4 8.86 4 -1 4 C-0.67 2.68 -0.34 1.36 0 0 Z " fill="#816F4B" transform="translate(60,37)"/>
<path d="M0 0 C0.042721 1.66611905 0.04063832 3.33382885 0 5 C-1 6 -1 6 -3.68383789 6.11352539 C-4.85164795 6.10828857 -6.01945801 6.10305176 -7.22265625 6.09765625 C-8.48271484 6.09443359 -9.74277344 6.09121094 -11.04101562 6.08789062 C-12.38151109 6.07953403 -13.72200588 6.07106907 -15.0625 6.0625 C-16.40689942 6.0574866 -17.7513006 6.05292342 -19.09570312 6.04882812 C-22.39717941 6.03699488 -25.69856803 6.02050971 -29 6 C-29 5.34 -29 4.68 -29 4 C-20.09 4 -11.18 4 -2 4 C-2 3.34 -2 2.68 -2 2 C-10.91 2 -19.82 2 -29 2 C-29 1.34 -29 0.68 -29 0 C-24.5420032 -0.19616609 -20.08359465 -0.38047068 -15.625 -0.5625 C-14.35398437 -0.61857422 -13.08296875 -0.67464844 -11.7734375 -0.73242188 C-10.56171875 -0.78076172 -9.35 -0.82910156 -8.1015625 -0.87890625 C-6.98088379 -0.9260376 -5.86020508 -0.97316895 -4.70556641 -1.02172852 C-2 -1 -2 -1 0 0 Z " fill="#82673A" transform="translate(90,67)"/>
<path d="M0 0 C1.32 0 2.64 0 4 0 C4 0.99 4 1.98 4 3 C3.34 3 2.68 3 2 3 C2 6.3 2 9.6 2 13 C2.66 13 3.32 13 4 13 C3.67 13.99 3.34 14.98 3 16 C1.02 16 -0.96 16 -3 16 C-3 15.01 -3 14.02 -3 13 C-2.34 13 -1.68 13 -1 13 C-1.33 12.01 -1.66 11.02 -2 10 C-2.45375 10.825 -2.9075 11.65 -3.375 12.5 C-3.91125 13.325 -4.4475 14.15 -5 15 C-5.66 15 -6.32 15 -7 15 C-8.32 10.71 -9.64 6.42 -11 2 C-10.01 2 -9.02 2 -8 2 C-7.814375 3.2065625 -7.814375 3.2065625 -7.625 4.4375 C-7.41875 5.283125 -7.2125 6.12875 -7 7 C-6.34 7.33 -5.68 7.66 -5 8 C-3.64531897 6.64531897 -2.87752544 5.10528707 -1.9375 3.4375 C-1.298125 2.303125 -0.65875 1.16875 0 0 Z " fill="#362E23" transform="translate(59,89)"/>
<path d="M0 0 C1.98 0 3.96 0 6 0 C7.125 3.75 7.125 3.75 6 6 C5.63858045 8.32914823 5.30300475 10.66253478 5 13 C5.66 13 6.32 13 7 13 C7 13.66 7 14.32 7 15 C-0.30909091 16.21818182 -0.30909091 16.21818182 -3.375 15.25 C-5 14 -5 14 -7 11 C-7 9.68 -7 8.36 -7 7 C-6.34 7 -5.68 7 -5 7 C-5 5.35 -5 3.7 -5 2 C-4.01 2 -3.02 2 -2 2 C-1.375 3.8125 -1.375 3.8125 -1 6 C-1.99 7.485 -1.99 7.485 -3 9 C-1.68 10.32 -0.36 11.64 1 13 C1.02708567 11.39592672 1.04643483 9.7917215 1.0625 8.1875 C1.07410156 7.29417969 1.08570312 6.40085937 1.09765625 5.48046875 C1.11009967 2.86586209 1.11009967 2.86586209 0 0 Z " fill="#362D1D" transform="translate(90,89)"/>
<path d="M0 0 C4.38183635 8.7636727 4.35473415 19.34334806 4 29 C3.34 29 2.68 29 2 29 C2 31.31 2 33.62 2 36 C1.34 36 0.68 36 0 36 C-0.06058594 35.37351563 -0.12117188 34.74703125 -0.18359375 34.1015625 C-0.26738281 33.28429687 -0.35117187 32.46703125 -0.4375 31.625 C-0.51871094 30.81289062 -0.59992187 30.00078125 -0.68359375 29.1640625 C-0.89090114 26.95727195 -0.89090114 26.95727195 -2 25 C-2 23.68 -2 22.36 -2 21 C-1.34 21 -0.68 21 0 21 C0 14.07 0 7.14 0 0 Z " fill="#33250E" transform="translate(37,50)"/>
<path d="M0 0 C0.33 0.66 0.66 1.32 1 2 C-1.14337745 4.5700213 -2.30835762 5.88033167 -5.6640625 6.4609375 C-12.30521411 6.2681864 -18.54375268 5.5997781 -25 4 C-25 3.01 -25 2.02 -25 1 C-12.625 0.505 -12.625 0.505 0 0 Z " fill="#856E44" transform="translate(141,82)"/>
<path d="M0 0 C2.97 0 5.94 0 9 0 C9.33 0.66 9.66 1.32 10 2 C9.34 2 8.68 2 8 2 C7.67 13.22 7.34 24.44 7 36 C6.34 36 5.68 36 5 36 C4.67 36.66 4.34 37.32 4 38 C4 35.69 4 33.38 4 31 C4.66 31 5.32 31 6 31 C5.88979143 27.91595192 5.75924186 24.83308808 5.625 21.75 C5.5940625 20.87730469 5.563125 20.00460938 5.53125 19.10546875 C5.49257813 18.26113281 5.45390625 17.41679688 5.4140625 16.546875 C5.3826416 15.77182617 5.3512207 14.99677734 5.31884766 14.19824219 C5.05857011 11.59348678 5.05857011 11.59348678 3 8 C2.67 12.95 2.34 17.9 2 23 C1.67 23 1.34 23 1 23 C-0.0176403 17.98391475 -0.11856434 13.21391694 -0.0625 8.125 C-0.05798828 7.34125 -0.05347656 6.5575 -0.04882812 5.75 C-0.03714093 3.83329986 -0.01920908 1.91663952 0 0 Z " fill="#4A3F29" transform="translate(35,48)"/>
<path d="M0 0 C1.134375 0.020625 2.26875 0.04125 3.4375 0.0625 C2.7775 2.0425 2.1175 4.0225 1.4375 6.0625 C2.7575 6.3925 4.0775 6.7225 5.4375 7.0625 C5.1075 7.7225 4.7775 8.3825 4.4375 9.0625 C3.4475 9.0625 2.4575 9.0625 1.4375 9.0625 C2.0975 11.0425 2.7575 13.0225 3.4375 15.0625 C0.5625 15.6875 0.5625 15.6875 -2.5625 16.0625 C-3.2225 15.4025 -3.8825 14.7425 -4.5625 14.0625 C-4.2325 13.175625 -3.9025 12.28875 -3.5625 11.375 C-2.64114193 8.32300138 -2.21300298 6.2079732 -2.5625 3.0625 C-3.2225 2.4025 -3.8825 1.7425 -4.5625 1.0625 C-3.5625 0.0625 -3.5625 0.0625 0 0 Z " fill="#524E41" transform="translate(10.5625,88.9375)"/>
<path d="M0 0 C7.60344828 0.60344828 7.60344828 0.60344828 10 3 C10.3125 6.5 10.3125 6.5 10 10 C6.91111478 12.05925681 6.29064073 12.2390374 2.8125 12.125 C0.9253125 12.063125 0.9253125 12.063125 -1 12 C-1.02687279 10.18757948 -1.04633715 8.37504767 -1.0625 6.5625 C-1.07410156 5.55316406 -1.08570312 4.54382813 -1.09765625 3.50390625 C-1 1 -1 1 0 0 Z M2 3 C2 5.31 2 7.62 2 10 C3.65 9.67 5.3 9.34 7 9 C8.01111093 5.95086772 8.01111093 5.95086772 7 3 C5.35 3 3.7 3 2 3 Z " fill="#5B5247" transform="translate(95,107)"/>
<path d="M0 0 C7.26 0 14.52 0 22 0 C22.66 1.65 23.32 3.3 24 5 C21.39048764 6.30475618 19.47298715 6.11301572 16.5546875 6.09765625 C14.94013672 6.09282227 14.94013672 6.09282227 13.29296875 6.08789062 C12.16503906 6.07951172 11.03710938 6.07113281 9.875 6.0625 C8.73933594 6.05798828 7.60367188 6.05347656 6.43359375 6.04882812 C3.62234362 6.03701615 0.8111977 6.02054507 -2 6 C-2 5.34 -2 4.68 -2 4 C5.59 4 13.18 4 21 4 C21 3.01 21 2.02 21 1 C14.07 1 7.14 1 0 1 C0 0.67 0 0.34 0 0 Z " fill="#A48D69" transform="translate(118,65)"/>
<path d="M0 0 C0.66 0.33 1.32 0.66 2 1 C2.4140625 3.06640625 2.4140625 3.06640625 2.625 5.5625 C2.69976562 6.38878906 2.77453125 7.21507813 2.8515625 8.06640625 C2.92503906 9.02353516 2.92503906 9.02353516 3 10 C4.98 9.67 6.96 9.34 9 9 C9 6.36 9 3.72 9 1 C9.99 1 10.98 1 12 1 C12 4.63 12 8.26 12 12 C6.06 12.495 6.06 12.495 0 13 C-0.89377528 9.42489889 -1.0258444 7.75082437 -0.5625 4.25 C-0.46066406 3.45078125 -0.35882813 2.6515625 -0.25390625 1.828125 C-0.17011719 1.22484375 -0.08632813 0.6215625 0 0 Z " fill="#766A5C" transform="translate(43,107)"/>
<path d="M0 0 C1.29349365 0.00523682 2.5869873 0.01047363 3.91967773 0.01586914 C4.9496714 0.01799156 4.9496714 0.01799156 6.00047302 0.02015686 C8.20144949 0.0257706 10.40232557 0.03832532 12.60327148 0.05102539 C14.09220231 0.05603863 15.58113473 0.06060184 17.07006836 0.06469727 C20.72700223 0.07574446 24.38387707 0.09301826 28.04077148 0.11352539 C27.71077148 1.76352539 27.38077148 3.41352539 27.04077148 5.11352539 C17.14077148 5.11352539 7.24077148 5.11352539 -2.95922852 5.11352539 C-3.28922852 3.79352539 -3.61922852 2.47352539 -3.95922852 1.11352539 C-2.95922852 0.11352539 -2.95922852 0.11352539 0 0 Z M-1.95922852 1.11352539 C-1.95922852 2.10352539 -1.95922852 3.09352539 -1.95922852 4.11352539 C2.3323117 4.20028159 6.62362816 4.25383429 10.91577148 4.30102539 C12.1390918 4.32616211 13.36241211 4.35129883 14.62280273 4.37719727 C15.7894043 4.38686523 16.95600586 4.3965332 18.15795898 4.40649414 C19.23674316 4.42220459 20.31552734 4.43791504 21.42700195 4.45410156 C22.2895459 4.34171143 23.15208984 4.22932129 24.04077148 4.11352539 C24.70077148 3.12352539 25.36077148 2.13352539 26.04077148 1.11352539 C16.80077148 1.11352539 7.56077148 1.11352539 -1.95922852 1.11352539 Z " fill="#96896B" transform="translate(112.959228515625,109.886474609375)"/>
<path d="M0 0 C2.33944736 0.28730055 4.6739143 0.61936779 7 1 C8.08287842 4.24863525 7.85269793 4.87344094 7 8 C7 9.32 7 10.64 7 12 C6.67 11.01 6.34 10.02 6 9 C3.09457188 10.3024333 1.1907039 11.70886268 -1 14 C-1.02685938 11.85423363 -1.04633088 9.70837355 -1.0625 7.5625 C-1.07410156 6.36753906 -1.08570312 5.17257813 -1.09765625 3.94140625 C-1 1 -1 1 0 0 Z M1 3 C1 3.99 1 4.98 1 6 C1.99 6 2.98 6 4 6 C4 5.01 4 4.02 4 3 C3.01 3 2.02 3 1 3 Z " fill="#372D21" transform="translate(68,89)"/>
<path d="M0 0 C0.99 0.33 1.98 0.66 3 1 C3 1.66 3 2.32 3 3 C3.66 3 4.32 3 5 3 C5 3.99 5 4.98 5 6 C5.66 6 6.32 6 7 6 C7 5.34 7 4.68 7 4 C8.65 4.33 10.3 4.66 12 5 C12 7.31 12 9.62 12 12 C11.34 12 10.68 12 10 12 C9.34 10.68 8.68 9.36 8 8 C7.67 8.66 7.34 9.32 7 10 C6.34 10 5.68 10 5 10 C4.34 9.01 3.68 8.02 3 7 C2.67 8.65 2.34 10.3 2 12 C1.34 12 0.68 12 0 12 C-0.92844389 7.66726186 -0.92844389 4.33273814 0 0 Z " fill="#514B3B" transform="translate(57,107)"/>
<path d="M0 0 C7.59 0 15.18 0 23 0 C23 0.99 23 1.98 23 3 C15.08 3 7.16 3 -1 3 C-0.67 2.01 -0.34 1.02 0 0 Z " fill="#836E44" transform="translate(116,66)"/>
<path d="M0 0 C0.99 0 1.98 0 3 0 C3.71960516 9.44343382 4.32368341 18.57130123 3 28 C2.34 28 1.68 28 1 28 C0.93941406 26.84242187 0.87882812 25.68484375 0.81640625 24.4921875 C0.73194498 22.95311543 0.64729982 21.41405345 0.5625 19.875 C0.52318359 19.11445312 0.48386719 18.35390625 0.44335938 17.5703125 C0.25298267 14.17282045 -0.01235393 10.9291062 -0.59765625 7.5703125 C-1 5 -1 5 0 3 C-0.33 2.67 -0.66 2.34 -1 2 C-0.67 1.34 -0.34 0.68 0 0 Z " fill="#31240E" transform="translate(90,58)"/>
<path d="M0 0 C0.66 0 1.32 0 2 0 C2 0.66 2 1.32 2 2 C10.58 2 19.16 2 28 2 C27.67 2.99 27.34 3.98 27 5 C14.13 4.505 14.13 4.505 1 4 C0.67 2.68 0.34 1.36 0 0 Z " fill="#9A7F53" transform="translate(6,75)"/>
<path d="M0 0 C0.66 0 1.32 0 2 0 C3.65 4.29 5.3 8.58 7 13 C6.01 13 5.02 13 4 13 C4 12.34 4 11.68 4 11 C1.03 10.505 1.03 10.505 -2 10 C-1.54177532 6.53058454 -1.10868317 3.32604951 0 0 Z M0 6 C1 8 1 8 1 8 Z " fill="#3C372D" transform="translate(29,89)"/>
<path d="M0 0 C8.58 0 17.16 0 26 0 C25.67 0.99 25.34 1.98 25 3 C16.75 2.67 8.5 2.34 0 2 C0 1.34 0 0.68 0 0 Z " fill="#9C8051" transform="translate(8,81)"/>
<path d="M0 0 C0.78375 0.04125 1.5675 0.0825 2.375 0.125 C2.375 1.115 2.375 2.105 2.375 3.125 C1.385 3.62 1.385 3.62 0.375 4.125 C2.025 4.455 3.675 4.785 5.375 5.125 C5.705 6.115 6.035 7.105 6.375 8.125 C4.91676788 8.1520043 3.45839325 8.17139787 2 8.1875 C1.18789062 8.19910156 0.37578125 8.21070312 -0.4609375 8.22265625 C-2.625 8.125 -2.625 8.125 -4.625 7.125 C-4.75 4.75 -4.75 4.75 -4.625 2.125 C-2.625 0.125 -2.625 0.125 0 0 Z " fill="#706554" transform="translate(87.625,111.875)"/>
<path d="M0 0 C2.3329866 0.04022391 4.66706666 0.04320247 7 0 C7.33 0.66 7.66 1.32 8 2 C-0.58 2 -9.16 2 -18 2 C-17.67 1.34 -17.34 0.68 -17 0 C-11.98397536 -1.1193655 -4.6516992 -2.3258496 0 0 Z " fill="#A38559" transform="translate(133,81)"/>
<path d="M0 0 C0.33 0 0.66 0 1 0 C1 3.3 1 6.6 1 10 C1.66 10.33 2.32 10.66 3 11 C2.01 11.33 1.02 11.66 0 12 C-0.66 10.02 -1.32 8.04 -2 6 C-14.87 5.505 -14.87 5.505 -28 5 C-28 4.67 -28 4.34 -28 4 C-19.09 3.67 -10.18 3.34 -1 3 C-0.67 2.01 -0.34 1.02 0 0 Z " fill="#786137" transform="translate(36,76)"/>
<path d="M0 0 C0.99 0 1.98 0 3 0 C3 10.89 3 21.78 3 33 C3.66 33 4.32 33 5 33 C5 34.65 5 36.3 5 38 C4.01 38 3.02 38 2 38 C2 25.79 2 13.58 2 1 C1.34 0.67 0.68 0.34 0 0 Z " fill="#5A4C34" transform="translate(51,48)"/>
<path d="M0 0 C0.66 0.33 1.32 0.66 2 1 C2.33333333 2.66666667 2.66666667 4.33333333 3 6 C3.66 6.33 4.32 6.66 5 7 C5.33 6.67 5.66 6.34 6 6 C6.66 6.33 7.32 6.66 8 7 C7.1875 9.9375 7.1875 9.9375 6 13 C5.01 13.33 4.02 13.66 3 14 C1.68 9.71 0.36 5.42 -1 1 C-0.67 0.67 -0.34 0.34 0 0 Z " fill="#332C21" transform="translate(49,90)"/>
<path d="M0 0 C0.69762451 0.32597168 1.39524902 0.65194336 2.11401367 0.98779297 C5.33113308 2.11613888 7.77446099 2.22882304 11.17578125 2.1953125 C12.33271484 2.18886719 13.48964844 2.18242188 14.68164062 2.17578125 C15.87982422 2.15902344 17.07800781 2.14226562 18.3125 2.125 C19.53001953 2.11597656 20.74753906 2.10695313 22.00195312 2.09765625 C25.00150274 2.07413037 28.00065044 2.04125653 31 2 C29.24494419 4.23059078 28.3735074 4.94393161 25.51977539 5.37231445 C24.55547607 5.3693335 23.59117676 5.36635254 22.59765625 5.36328125 C21.54255859 5.36263672 20.48746094 5.36199219 19.40039062 5.36132812 C18.29888672 5.34521484 17.19738281 5.32910156 16.0625 5.3125 C14.96486328 5.31572266 13.86722656 5.31894531 12.73632812 5.32226562 C3.81379543 5.26238286 3.81379543 5.26238286 0 3 C0 2.01 0 1.02 0 0 Z " fill="#7A6D57" transform="translate(59,83)"/>
<path d="M0 0 C0.33 0.66 0.66 1.32 1 2 C-1.23080156 4.71458985 -2.38810958 5.89569116 -5.91015625 6.49609375 C-6.95042969 6.47675781 -7.99070313 6.45742187 -9.0625 6.4375 C-10.10535156 6.43621094 -11.14820313 6.43492188 -12.22265625 6.43359375 C-15.25594942 5.96004165 -16.16569262 5.39285081 -18 3 C-17.20335938 3.03480469 -16.40671875 3.06960937 -15.5859375 3.10546875 C-7.3212806 3.33334024 -7.3212806 3.33334024 0 0 Z " fill="#6D5C49" transform="translate(141,82)"/>
<path d="M0 0 C0.33 0 0.66 0 1 0 C1 12.21 1 24.42 1 37 C-0.485 37.495 -0.485 37.495 -2 38 C-1.67 37.01 -1.34 36.02 -1 35 C-0.84653047 32.34393699 -0.74282102 29.70904905 -0.68359375 27.05078125 C-0.66281265 26.27816452 -0.64203156 25.50554779 -0.62062073 24.70951843 C-0.55528962 22.2439352 -0.49631685 19.77824639 -0.4375 17.3125 C-0.39429913 15.63996309 -0.35068434 13.96743681 -0.30664062 12.29492188 C-0.1996251 8.1967225 -0.09831143 4.09841704 0 0 Z " fill="#2C1E09" transform="translate(42,49)"/>
<path d="M0 0 C0.33 0 0.66 0 1 0 C1 2.31 1 4.62 1 7 C1.99 7.33 2.98 7.66 4 8 C4 8.33 4 8.66 4 9 C-1.37625234 9.84888195 -5.65370398 10.0024305 -11 9 C-10.01 7.68 -9.02 6.36 -8 5 C-7.34 5.66 -6.68 6.32 -6 7 C-5.01 7 -4.02 7 -3 7 C-3 6.01 -3 5.02 -3 4 C-2.34 4 -1.68 4 -1 4 C-0.67 2.68 -0.34 1.36 0 0 Z " fill="#494134" transform="translate(41,95)"/>
<path d="M0 0 C0.66 1.32 1.32 2.64 2 4 C1 5 1 5 -1.68383789 5.11352539 C-2.85164795 5.10828857 -4.01945801 5.10305176 -5.22265625 5.09765625 C-6.48271484 5.09443359 -7.74277344 5.09121094 -9.04101562 5.08789062 C-10.38151109 5.07953403 -11.72200588 5.07106907 -13.0625 5.0625 C-14.40689942 5.0574866 -15.7513006 5.05292342 -17.09570312 5.04882812 C-20.39717941 5.03699488 -23.69856803 5.02050971 -27 5 C-23.82403161 3.11627786 -21.68030919 2.79998115 -18.015625 3.0234375 C-17.08105469 3.075 -16.14648438 3.1265625 -15.18359375 3.1796875 C-14.21550781 3.24414062 -13.24742188 3.30859375 -12.25 3.375 C-11.26644531 3.43171875 -10.28289063 3.4884375 -9.26953125 3.546875 C-6.845589 3.68807552 -4.42272541 3.83945795 -2 4 C-1.34 2.68 -0.68 1.36 0 0 Z " fill="#776853" transform="translate(34,82)"/>
<path d="M0 0 C1.5 1.3125 1.5 1.3125 3 3 C3 3.99 3 4.98 3 6 C2.34 6 1.68 6 1 6 C1.33 8.64 1.66 11.28 2 14 C0.35 14 -1.3 14 -3 14 C-2.67 13.34 -2.34 12.68 -2 12 C-1.79777644 10.33727297 -1.63588613 8.66945815 -1.5 7 C-1.11111111 2.22222222 -1.11111111 2.22222222 0 0 Z " fill="#383224" transform="translate(132,90)"/>
<path d="M0 0 C0.99 0 1.98 0 3 0 C3.625 1.8125 3.625 1.8125 4 4 C3.01 5.485 3.01 5.485 2 7 C2.3121764 9.64632287 2.3121764 9.64632287 3 12 C0.5 10.75 0.5 10.75 -2 9 C-2 7.68 -2 6.36 -2 5 C-1.34 5 -0.68 5 0 5 C0 3.35 0 1.7 0 0 Z " fill="#2F291A" transform="translate(85,91)"/>
<path d="M0 0 C1.4370809 -0.05422947 2.87475462 -0.09289723 4.3125 -0.125 C5.11300781 -0.14820312 5.91351563 -0.17140625 6.73828125 -0.1953125 C9 0 9 0 12 2 C11.01 2.99 10.02 3.98 9 5 C8.01 4.34 7.02 3.68 6 3 C5.67 4.32 5.34 5.64 5 7 C5 5.68 5 4.36 5 3 C2.03 2.505 2.03 2.505 -1 2 C-0.67 1.34 -0.34 0.68 0 0 Z " fill="#544D3A" transform="translate(130,89)"/>
<path d="M0 0 C1.65 0 3.3 0 5 0 C5 3.04561282 4.5626816 5.69825402 4 8.6875 C3.814375 9.68136719 3.62875 10.67523438 3.4375 11.69921875 C3.293125 12.45847656 3.14875 13.21773437 3 14 C0.56176269 9.49025212 0 5.1101988 0 0 Z " fill="#363027" transform="translate(38,89)"/>
<path d="M0 0 C0.66 0 1.32 0 2 0 C2 6.6 2 13.2 2 20 C1.34 20 0.68 20 0 20 C-0.33 20.66 -0.66 21.32 -1 22 C-1 19.69 -1 17.38 -1 15 C-0.34 15 0.32 15 1 15 C0.67 10.05 0.34 5.1 0 0 Z " fill="#5D5227" transform="translate(40,64)"/>
<path d="M0 0 C2.64 0 5.28 0 8 0 C8.33 1.32 8.66 2.64 9 4 C6.69 3.67 4.38 3.34 2 3 C1.34 4.32 0.68 5.64 0 7 C-1.33332095 4.3333581 -0.67102033 2.83319697 0 0 Z " fill="#61574A" transform="translate(84,107)"/>
<path d="M0 0 C0.33 0 0.66 0 1 0 C1.33 8.91 1.66 17.82 2 27 C1.34 27.33 0.68 27.66 0 28 C-0.66 27.34 -1.32 26.68 -2 26 C-1.34 26 -0.68 26 0 26 C0 17.42 0 8.84 0 0 Z " fill="#2A1D07" transform="translate(96,58)"/>
<path d="M0 0 C0.66 0.33 1.32 0.66 2 1 C2 2.32 2 3.64 2 5 C1.46375 4.67 0.9275 4.34 0.375 4 C-2.57217367 2.75908477 -4.82934784 2.79321834 -8 3 C-8.99 3.495 -8.99 3.495 -10 4 C-9.67 3.01 -9.34 2.02 -9 1 C-5.77390955 -0.07536348 -3.37822416 -0.14375422 0 0 Z " fill="#484338" transform="translate(126,89)"/>
<path d="M0 0 C0.66 0.66 1.32 1.32 2 2 C1.9765625 5.0390625 1.9765625 5.0390625 1.625 8.625 C1.51414062 9.81351563 1.40328125 11.00203125 1.2890625 12.2265625 C1.19367188 13.14179687 1.09828125 14.05703125 1 15 C1.66 15 2.32 15 3 15 C2.34 16.98 1.68 18.96 1 21 C0.01 20.67 -0.98 20.34 -2 20 C-2 19.34 -2 18.68 -2 18 C-1.34 18 -0.68 18 0 18 C0 12.06 0 6.12 0 0 Z " fill="#7E6C4E" transform="translate(88,45)"/>
<path d="M0 0 C1.98 0 3.96 0 6 0 C7.125 3.75 7.125 3.75 6 6 C5.63858045 8.32914823 5.30300475 10.66253478 5 13 C4.67 13 4.34 13 4 13 C3.896875 11.741875 3.79375 10.48375 3.6875 9.1875 C3.30390844 5.86042583 3.30390844 5.86042583 1.4375 3.125 C0.963125 2.75375 0.48875 2.3825 0 2 C0 1.34 0 0.68 0 0 Z " fill="#3F3B2E" transform="translate(90,89)"/>
<path d="M0 0 C2.64 0 5.28 0 8 0 C9.6415049 3.2830098 8.51888624 6.42545033 8 10 C7.67 10 7.34 10 7 10 C6.938125 9.05125 6.87625 8.1025 6.8125 7.125 C6.544375 6.09375 6.27625 5.0625 6 4 C3.53744315 2.54708727 3.53744315 2.54708727 1 2 C0.67 2.66 0.34 3.32 0 4 C0 2.68 0 1.36 0 0 Z " fill="#464133" transform="translate(105,56)"/>
<path d="M0 0 C0.66 0.33 1.32 0.66 2 1 C2 3.97 2 6.94 2 10 C1.01 10 0.02 10 -1 10 C-1.02689216 8.52093108 -1.04634621 7.04172517 -1.0625 5.5625 C-1.07410156 4.73878906 -1.08570313 3.91507812 -1.09765625 3.06640625 C-1 1 -1 1 0 0 Z " fill="#474237" transform="translate(53,107)"/>
<path d="M0 0 C1.2380014 3.57644848 0.74926071 6.33694766 0 10 C0.66 10.33 1.32 10.66 2 11 C1.01 11 0.02 11 -1 11 C-2.83832664 7.89782379 -3.47446226 5.60591321 -3 2 C-2.01 1.34 -1.02 0.68 0 0 Z " fill="#27231A" transform="translate(118,91)"/>
<path d="M0 0 C0.66 0 1.32 0 2 0 C1.67 1.32 1.34 2.64 1 4 C-5.27 4 -11.54 4 -18 4 C-18 3.67 -18 3.34 -18 3 C-16.86820312 2.95101562 -15.73640625 2.90203125 -14.5703125 2.8515625 C-13.08851661 2.77653486 -11.606747 2.70098703 -10.125 2.625 C-9.37863281 2.5940625 -8.63226563 2.563125 -7.86328125 2.53125 C-3.46526812 2.44356169 -3.46526812 2.44356169 0 0 Z " fill="#897962" transform="translate(139,111)"/>
<path d="M0 0 C6.875 1.875 6.875 1.875 8 3 C8.04063832 4.66617115 8.042721 6.33388095 8 8 C6.5 6.625 6.5 6.625 5 5 C5 4.34 5 3.68 5 3 C3.02 3 1.04 3 -1 3 C-0.67 2.01 -0.34 1.02 0 0 Z " fill="#6E6559" transform="translate(97,107)"/>
<path d="M0 0 C0.99 1.32 1.98 2.64 3 4 C2.34 4.66 1.68 5.32 1 6 C-2.125 5.625 -2.125 5.625 -5 5 C-4.1875 3.0625 -4.1875 3.0625 -3 1 C-2.01 0.67 -1.02 0.34 0 0 Z " fill="#554E45" transform="translate(11,99)"/>
<path d="M0 0 C1.45792884 -0.05399736 2.91642712 -0.09279177 4.375 -0.125 C5.18710938 -0.14820312 5.99921875 -0.17140625 6.8359375 -0.1953125 C9 0 9 0 11 2 C9.02 2.66 7.04 3.32 5 4 C5 3.01 5 2.02 5 1 C3.02 1.99 3.02 1.99 1 3 C0.67 2.01 0.34 1.02 0 0 Z " fill="#5B5449" transform="translate(76,89)"/>
<path d="M0 0 C0.33 0 0.66 0 1 0 C1 3.96 1 7.92 1 12 C0.67 11.01 0.34 10.02 0 9 C-0.66 8.67 -1.32 8.34 -2 8 C-2.20086443 4.28400809 -2.1519437 3.22791555 0 0 Z " fill="#30291C" transform="translate(10,91)"/>
<path d="M0 0 C0.99 0.33 1.98 0.66 3 1 C4.6875 4.5625 4.6875 4.5625 6 8 C5.01 8 4.02 8 3 8 C3 7.34 3 6.68 3 6 C2.01 5.67 1.02 5.34 0 5 C0.66 5 1.32 5 2 5 C2 4.34 2 3.68 2 3 C1.34 3 0.68 3 0 3 C0 2.01 0 1.02 0 0 Z " fill="#2E2219" transform="translate(30,94)"/>
<path d="M0 0 C1.95216435 3.90432869 2.50639991 6.72213252 3 11 C1.68 10.67 0.36 10.34 -1 10 C-0.67 6.7 -0.34 3.4 0 0 Z " fill="#504632" transform="translate(108,75)"/>
<path d="M0 0 C2.23551759 3.35327639 2.17283528 3.90743657 1.625 7.6875 C1.51414063 8.49574219 1.40328125 9.30398437 1.2890625 10.13671875 C1.19367188 10.75160156 1.09828125 11.36648437 1 12 C0.34 11.67 -0.32 11.34 -1 11 C-1.02688151 9.35425434 -1.04634123 7.70838587 -1.0625 6.0625 C-1.07410156 5.14597656 -1.08570313 4.22945313 -1.09765625 3.28515625 C-1 1 -1 1 0 0 Z " fill="#7C6B57" transform="translate(140,70)"/>
<path d="M0 0 C0.625 1.875 0.625 1.875 1 4 C0.34 4.66 -0.32 5.32 -1 6 C-4.125 5.625 -4.125 5.625 -7 5 C-7 4.34 -7 3.68 -7 3 C-5.5459375 2.5359375 -5.5459375 2.5359375 -4.0625 2.0625 C-1.15934208 1.30476658 -1.15934208 1.30476658 0 0 Z " fill="#4C473E" transform="translate(141,99)"/>
<path d="M0 0 C1.32 0 2.64 0 4 0 C4 0.99 4 1.98 4 3 C3.01 3 2.02 3 1 3 C0.34 4.32 -0.32 5.64 -1 7 C-1.66 7 -2.32 7 -3 7 C-1.125 1.125 -1.125 1.125 0 0 Z " fill="#474035" transform="translate(59,89)"/>
<path d="M0 0 C2 2 2 2 2.125 5.125 C2.08375 6.07375 2.0425 7.0225 2 8 C1.01 8 0.02 8 -1 8 C-0.67 5.36 -0.34 2.72 0 0 Z " fill="#5A5445" transform="translate(78,111)"/>
<path d="M0 0 C0.99 0 1.98 0 3 0 C3.66 0.66 4.32 1.32 5 2 C6.98821313 2.39764263 8.98944339 2.73775349 11 3 C11 3.33 11 3.66 11 4 C4.6 5.23076923 4.6 5.23076923 1.5625 4.0625 C1.046875 3.711875 0.53125 3.36125 0 3 C0 2.01 0 1.02 0 0 Z " fill="#776C58" transform="translate(113,83)"/>
<path d="M0 0 C0 2.31 0 4.62 0 7 C-2 6 -2 6 -3 3 C-3.66 2.34 -4.32 1.68 -5 1 C-3 0 -3 0 0 0 Z " fill="#4A453B" transform="translate(49,89)"/>
<path d="M0 0 C1.4540625 0.0309375 1.4540625 0.0309375 2.9375 0.0625 C2.9375 1.0525 2.9375 2.0425 2.9375 3.0625 C2.6075 2.4025 2.2775 1.7425 1.9375 1.0625 C1.2775 1.0625 0.6175 1.0625 -0.0625 1.0625 C-0.3925 2.3825 -0.7225 3.7025 -1.0625 5.0625 C-2.0525 3.7425 -3.0425 2.4225 -4.0625 1.0625 C-3.0625 0.0625 -3.0625 0.0625 0 0 Z " fill="#545047" transform="translate(19.0625,88.9375)"/>
<path d="" fill="#202020" transform="translate(0,0)"/>
<path d="" fill="#000000" transform="translate(0,0)"/>
<path d="" fill="#333333" transform="translate(0,0)"/>
<path d="" fill="#2A2A2A" transform="translate(0,0)"/>
<path d="" fill="#800000" transform="translate(0,0)"/>
<path d="" fill="#555555" transform="translate(0,0)"/>
<path d="" fill="#000000" transform="translate(0,0)"/>
<path d="" fill="#555555" transform="translate(0,0)"/>
<path d="" fill="#404040" transform="translate(0,0)"/>
<path d="" fill="#552A2A" transform="translate(0,0)"/>
<path d="" fill="#000000" transform="translate(0,0)"/>
<path d="" fill="#008000" transform="translate(0,0)"/>
<path d="" fill="#808000" transform="translate(0,0)"/>
<path d="" fill="#494949" transform="translate(0,0)"/>
</svg>
