<?xml version="1.0" encoding="UTF-8"?>
<svg version="1.1" xmlns="http://www.w3.org/2000/svg" width="150" height="150">
<path d="M0 0 C49.5 0 99 0 150 0 C150 49.5 150 99 150 150 C100.5 150 51 150 0 150 C0 100.5 0 51 0 0 Z " fill="#FEFDFC" transform="translate(0,0)"/>
<path d="M0 0 C10.23 0 20.46 0 31 0 C31.495 9.405 31.495 9.405 32 19 C37.94 19 43.88 19 50 19 C50 29.89 50 40.78 50 52 C55.94 51.505 55.94 51.505 62 51 C64.33308107 50.96568998 66.66726905 50.94698339 69 51 C69 50.34 69 49.68 69 49 C68.19175781 49.01160156 67.38351563 49.02320313 66.55078125 49.03515625 C65.48214844 49.04417969 64.41351563 49.05320313 63.3125 49.0625 C62.25675781 49.07410156 61.20101562 49.08570313 60.11328125 49.09765625 C57 49 57 49 52 48 C52 38.43 52 28.86 52 19 C52.99 19 53.98 19 55 19 C55 21.97 55 24.94 55 28 C63.91 28 72.82 28 82 28 C82 34.93 82 41.86 82 49 C78.37 49 74.74 49 71 49 C71.33 49.66 71.66 50.32 72 51 C74.35599235 51.46751788 74.35599235 51.46751788 77.0625 51.625 C77.98160156 51.69976562 78.90070313 51.77453125 79.84765625 51.8515625 C80.55792969 51.90054688 81.26820313 51.94953125 82 52 C81.67 52.99 81.34 53.98 81 55 C79.35 54.34 77.7 53.68 76 53 C76 54.65 76 56.3 76 58 C78.475 57.505 78.475 57.505 81 57 C80.67 58.32 80.34 59.64 80 61 C78.68 60.34 77.36 59.68 76 59 C76 60.98 76 62.96 76 65 C79.93075644 64.42547254 79.93075644 64.42547254 83 62 C82.37240135 64.92879371 81.41377341 67.36095629 80 70 C80.66 70.66 81.32 71.32 82 72 C82 73.32 82 74.64 82 76 C77.65838175 76.04952706 73.31691425 76.08577954 68.97509766 76.10986328 C67.49883153 76.11990591 66.02258521 76.13354265 64.54638672 76.15087891 C62.42149966 76.17520421 60.29687615 76.1865004 58.171875 76.1953125 C56.8940918 76.20578613 55.61630859 76.21625977 54.29980469 76.22705078 C51.22530701 76.01550278 49.56261648 75.63126908 47 74 C46.896875 74.78375 46.79375 75.5675 46.6875 76.375 C46 79 46 79 43 81 C39.8125 81.125 39.8125 81.125 37 81 C36.34 79.35 35.68 77.7 35 76 C32.69 76 30.38 76 28 76 C28 76.99 28 77.98 28 79 C30.31 79 32.62 79 35 79 C35 79.66 35 80.32 35 81 C32.03 81 29.06 81 26 81 C26 78.03 26 75.06 26 72 C24.68 72 23.36 72 22 72 C22 74.97 22 77.94 22 81 C21.34 81 20.68 81 20 81 C20 77.7 20 74.4 20 71 C18.35 71 16.7 71 15 71 C15 74.3 15 77.6 15 81 C14.34 81 13.68 81 13 81 C12.505 77.04 12.505 77.04 12 73 C11.67 75.64 11.34 78.28 11 81 C10.34 81 9.68 81 9 81 C8.505 77.535 8.505 77.535 8 74 C7.34 75.32 6.68 76.64 6 78 C5.01 77.67 4.02 77.34 3 77 C2.67 76.34 2.34 75.68 2 75 C1.67 76.98 1.34 78.96 1 81 C-2.75 82.125 -2.75 82.125 -5 81 C-5.02725341 79.2709226 -5.04650987 77.54171824 -5.0625 75.8125 C-5.07410156 74.84957031 -5.08570313 73.88664062 -5.09765625 72.89453125 C-5.00486622 70.14423487 -4.62111685 67.67520409 -4 65 C-4.99 64.505 -4.99 64.505 -6 64 C-7.3749149 61.09740189 -8 59.23861295 -8 56 C-8.66 56 -9.32 56 -10 56 C-10 58.97 -10 61.94 -10 65 C-9.01 65.495 -9.01 65.495 -8 66 C-9.65 66 -11.3 66 -13 66 C-12.67 65.34 -12.34 64.68 -12 64 C-11.960008 62.00039988 -11.95653201 59.99952758 -12 58 C-12.99 58.33 -13.98 58.66 -15 59 C-15 61.31 -15 63.62 -15 66 C-18.63 66 -22.26 66 -26 66 C-26 64.35 -26 62.7 -26 61 C-27.65 61 -29.3 61 -31 61 C-31.33 62.32 -31.66 63.64 -32 65 C-31.34 65.33 -30.68 65.66 -30 66 C-33.63 66 -37.26 66 -41 66 C-40.67 63.69 -40.34 61.38 -40 59 C-42.31 59 -44.62 59 -47 59 C-47 60.98 -47 62.96 -47 65 C-46.34 65.33 -45.68 65.66 -45 66 C-46.65 66 -48.3 66 -50 66 C-50 61.38 -50 56.76 -50 52 C-48.35 52 -46.7 52 -45 52 C-45.99 52.495 -45.99 52.495 -47 53 C-47 54.65 -47 56.3 -47 58 C-44.69 58 -42.38 58 -40 58 C-40.33 56.02 -40.66 54.04 -41 52 C-39.02 52 -37.04 52 -35 52 C-35 52.66 -35 53.32 -35 54 C-34.2575 53.505 -33.515 53.01 -32.75 52.5 C-30 51 -30 51 -26 51 C-26 50.34 -26 49.68 -26 49 C-33.92 48.67 -41.84 48.34 -50 48 C-50 40.41 -50 32.82 -50 25 C-40.76 25 -31.52 25 -22 25 C-22 20.38 -22 15.76 -22 11 C-20.515 11.020625 -19.03 11.04125 -17.5 11.0625 C-12.90292746 11.06902993 -8.54648423 10.64949775 -4 10 C-2.33333333 10 -0.66666667 10 1 10 C1.10959932 5.64380219 1.10959932 5.64380219 0 0 Z M-37 54 C-36.67 54.66 -36.34 55.32 -36 56 C-35.67 55.34 -35.34 54.68 -35 54 C-35.66 54 -36.32 54 -37 54 Z " fill="#F0EADF" transform="translate(58,38)"/>
<path d="M0 0 C5.94 0 11.88 0 18 0 C18 10.89 18 21.78 18 33 C23.94 32.505 23.94 32.505 30 32 C32.33308107 31.96568998 34.66726905 31.94698339 37 32 C37 31.34 37 30.68 37 30 C36.19175781 30.01160156 35.38351563 30.02320312 34.55078125 30.03515625 C33.48214844 30.04417969 32.41351563 30.05320312 31.3125 30.0625 C29.72888672 30.07990234 29.72888672 30.07990234 28.11328125 30.09765625 C25 30 25 30 20 29 C20 19.43 20 9.86 20 0 C20.99 0 21.98 0 23 0 C23 2.97 23 5.94 23 9 C31.91 9 40.82 9 50 9 C50 15.93 50 22.86 50 30 C46.37 30 42.74 30 39 30 C39.495 30.99 39.495 30.99 40 32 C42.35599235 32.46751788 42.35599235 32.46751788 45.0625 32.625 C45.98160156 32.69976562 46.90070313 32.77453125 47.84765625 32.8515625 C48.55792969 32.90054688 49.26820313 32.94953125 50 33 C49.67 33.99 49.34 34.98 49 36 C47.35 35.34 45.7 34.68 44 34 C44 35.65 44 37.3 44 39 C45.65 38.67 47.3 38.34 49 38 C48.67 39.32 48.34 40.64 48 42 C46.68 41.34 45.36 40.68 44 40 C44 41.98 44 43.96 44 46 C47.93075644 45.42547254 47.93075644 45.42547254 51 43 C50.37240135 45.92879371 49.41377341 48.36095629 48 51 C48.66 51.66 49.32 52.32 50 53 C50 54.32 50 55.64 50 57 C45.65838175 57.04952706 41.31691425 57.08577954 36.97509766 57.10986328 C35.49883153 57.11990591 34.02258521 57.13354265 32.54638672 57.15087891 C30.42149966 57.17520421 28.29687615 57.1865004 26.171875 57.1953125 C24.8940918 57.20578613 23.61630859 57.21625977 22.29980469 57.22705078 C19.22530701 57.01550278 17.56261648 56.63126908 15 55 C14.8453125 56.175625 14.8453125 56.175625 14.6875 57.375 C14 60 14 60 11 62 C7.8125 62.125 7.8125 62.125 5 62 C4.34 60.35 3.68 58.7 3 57 C0.69 57 -1.62 57 -4 57 C-4 57.99 -4 58.98 -4 60 C-1.69 60 0.62 60 3 60 C3 60.66 3 61.32 3 62 C0.03 62 -2.94 62 -6 62 C-6 59.03 -6 56.06 -6 53 C-7.32 53 -8.64 53 -10 53 C-10 55.97 -10 58.94 -10 62 C-10.66 62 -11.32 62 -12 62 C-12 58.7 -12 55.4 -12 52 C-13.65 52 -15.3 52 -17 52 C-17 55.3 -17 58.6 -17 62 C-17.66 62 -18.32 62 -19 62 C-19.33 59.36 -19.66 56.72 -20 54 C-20.33 56.64 -20.66 59.28 -21 62 C-21.66 62 -22.32 62 -23 62 C-23.33 59.69 -23.66 57.38 -24 55 C-25.98 55.495 -25.98 55.495 -28 56 C-29.65 54.02 -31.3 52.04 -33 50 C-32.34 50 -31.68 50 -31 50 C-31 49.34 -31 48.68 -31 48 C-31.99 47.67 -32.98 47.34 -34 47 C-31.525 46.505 -31.525 46.505 -29 46 C-28.91917906 44.04233719 -28.86089222 42.08373272 -28.8125 40.125 C-28.76029297 38.48917969 -28.76029297 38.48917969 -28.70703125 36.8203125 C-28.85205078 35.42425781 -28.85205078 35.42425781 -29 34 C-29.99 33.34 -30.98 32.68 -32 32 C-32.99 32.66 -33.98 33.32 -35 34 C-34.6875 32.0625 -34.6875 32.0625 -34 30 C-30.46173745 28.82057915 -27.65851274 28.88710811 -23.92578125 28.90234375 C-22.90003242 28.90446617 -22.90003242 28.90446617 -21.8535614 28.90663147 C-19.67316278 28.91222124 -17.49286749 28.92477178 -15.3125 28.9375 C-13.83268378 28.94251633 -12.35286594 28.947079 -10.87304688 28.95117188 C-7.24862624 28.9613357 -3.62442856 28.9809129 0 29 C0 19.43 0 9.86 0 0 Z " fill="#FAF8F2" transform="translate(90,57)"/>
<path d="M0 0 C10.23 0 20.46 0 31 0 C31 15.84 31 31.68 31 48 C20.11 48 9.22 48 -2 48 C-2 35.46 -2 22.92 -2 10 C-1.01 10 -0.02 10 1 10 C1.10959932 5.64380219 1.10959932 5.64380219 0 0 Z " fill="#AA936A" transform="translate(58,38)"/>
<path d="M0 0 C5.61 0 11.22 0 17 0 C17 10.89 17 21.78 17 33 C22.94 32.505 22.94 32.505 29 32 C31.33308107 31.96568998 33.66726905 31.94698339 36 32 C36 31.34 36 30.68 36 30 C35.19175781 30.01160156 34.38351563 30.02320312 33.55078125 30.03515625 C32.48214844 30.04417969 31.41351563 30.05320312 30.3125 30.0625 C28.72888672 30.07990234 28.72888672 30.07990234 27.11328125 30.09765625 C24 30 24 30 19 29 C19 19.43 19 9.86 19 0 C19.99 0 20.98 0 22 0 C22 2.97 22 5.94 22 9 C30.91 9 39.82 9 49 9 C49 15.93 49 22.86 49 30 C45.37 30 41.74 30 38 30 C38.495 30.99 38.495 30.99 39 32 C41.35599235 32.46751788 41.35599235 32.46751788 44.0625 32.625 C44.98160156 32.69976562 45.90070313 32.77453125 46.84765625 32.8515625 C47.55792969 32.90054688 48.26820313 32.94953125 49 33 C48.67 33.99 48.34 34.98 48 36 C46.35 35.34 44.7 34.68 43 34 C43 35.65 43 37.3 43 39 C45.475 38.505 45.475 38.505 48 38 C47.67 39.32 47.34 40.64 47 42 C45.68 41.34 44.36 40.68 43 40 C43 41.98 43 43.96 43 46 C46.93075644 45.42547254 46.93075644 45.42547254 50 43 C49.67 44.32 49.34 45.64 49 47 C45.7 47 42.4 47 39 47 C39.66 46.67 40.32 46.34 41 46 C40.01 41.05 40.01 41.05 39 36 C37.02 36.495 37.02 36.495 35 37 C34.67 36.34 34.34 35.68 34 35 C32.00045254 34.95745644 29.99958364 34.95919217 28 35 C26.60712194 36.17036305 26.60712194 36.17036305 26.8125 39.4375 C26.60435072 43.05032721 26.60435072 43.05032721 29 45 C31.57061311 45.64767793 31.57061311 45.64767793 34 46 C33.34 44.02 32.68 42.04 32 40 C33.65 40 35.3 40 37 40 C36.67 42.31 36.34 44.62 36 47 C35.11957031 47.06058594 34.23914063 47.12117188 33.33203125 47.18359375 C32.17058594 47.26738281 31.00914063 47.35117188 29.8125 47.4375 C28.66394531 47.51871094 27.51539062 47.59992188 26.33203125 47.68359375 C23.48401829 47.95403812 20.78789518 48.37521747 18 49 C18 48.34 18 47.68 18 47 C17.34 46.34 16.68 45.68 16 45 C16.66 44.34 17.32 43.68 18 43 C18.16677282 39.41656024 18.16677282 39.41656024 18 36 C15.69 35.34 13.38 34.68 11 34 C11.08693141 35.79258558 11.19510504 37.58415144 11.3125 39.375 C11.39951172 40.87160156 11.39951172 40.87160156 11.48828125 42.3984375 C11.65714844 43.25695312 11.82601562 44.11546875 12 45 C12.99 45.66 13.98 46.32 15 47 C12.69 47 10.38 47 8 47 C8 42.38 8 37.76 8 33 C6.515 33.495 6.515 33.495 5 34 C5 38.29 5 42.58 5 47 C3.35 47 1.7 47 0 47 C0 42.38 0 37.76 0 33 C0.99 33 1.98 33 3 33 C2.51104248 32.64639404 2.02208496 32.29278809 1.51831055 31.9284668 C-0.74180092 29.05780906 -0.33867132 26.75503455 -0.29296875 23.14453125 C-0.28872391 22.48289474 -0.28447906 21.82125824 -0.28010559 21.13957214 C-0.26333693 19.0301309 -0.22569099 16.92165154 -0.1875 14.8125 C-0.17245068 13.38087319 -0.1587627 11.94923138 -0.14648438 10.51757812 C-0.11599284 7.01105173 -0.05727659 3.50660006 0 0 Z " fill="#EEE8DD" transform="translate(91,57)"/>
<path d="M0 0 C0.99 0 1.98 0 3 0 C3 12.21 3 24.42 3 37 C-7.23 37 -17.46 37 -28 37 C-28 29.41 -28 21.82 -28 14 C-18.76 14 -9.52 14 0 14 C0 9.38 0 4.76 0 0 Z " fill="#857354" transform="translate(36,49)"/>
<path d="M0 0 C10.23 0 20.46 0 31 0 C31 4.95 31 9.9 31 15 C21.43 15 11.86 15 2 15 C1.67 25.89 1.34 36.78 1 48 C0.01 48 -0.98 48 -2 48 C-2 35.46 -2 22.92 -2 10 C-1.01 10 -0.02 10 1 10 C1.10959932 5.64380219 1.10959932 5.64380219 0 0 Z " fill="#7B6C53" transform="translate(58,38)"/>
<path d="M0 0 C0.99 0 1.98 0 3 0 C3 2.97 3 5.94 3 9 C11.91 9 20.82 9 30 9 C30 14.61 30 20.22 30 26 C21.75 26 13.5 26 5 26 C5 26.99 5 27.98 5 29 C3.35 29 1.7 29 0 29 C0 19.43 0 9.86 0 0 Z " fill="#E0CBA9" transform="translate(110,57)"/>
<path d="M0 0 C0.33 0 0.66 0 1 0 C1 12.21 1 24.42 1 37 C4.3 37.33 7.6 37.66 11 38 C9.68 38.66 8.36 39.32 7 40 C7.495 42.97 7.495 42.97 8 46 C6.68 46.66 5.36 47.32 4 48 C4 50.31 4 52.62 4 55 C0.37 55 -3.26 55 -7 55 C-7 53.35 -7 51.7 -7 50 C-8.65 50 -10.3 50 -12 50 C-12.33 51.32 -12.66 52.64 -13 54 C-12.34 54.33 -11.68 54.66 -11 55 C-14.63 55 -18.26 55 -22 55 C-21.67 52.69 -21.34 50.38 -21 48 C-23.31 48 -25.62 48 -28 48 C-28 49.98 -28 51.96 -28 54 C-27.34 54.33 -26.68 54.66 -26 55 C-27.65 55 -29.3 55 -31 55 C-31 50.38 -31 45.76 -31 41 C-29.35 41 -27.7 41 -26 41 C-26.99 41.495 -26.99 41.495 -28 42 C-28 43.65 -28 45.3 -28 47 C-25.69 47 -23.38 47 -21 47 C-21.33 45.02 -21.66 43.04 -22 41 C-20.02 41 -18.04 41 -16 41 C-16 41.66 -16 42.32 -16 43 C-15.2575 42.505 -14.515 42.01 -13.75 41.5 C-11 40 -11 40 -7 40 C-7 39.34 -7 38.68 -7 38 C-3.535 37.505 -3.535 37.505 0 37 C0 24.79 0 12.58 0 0 Z M-18 43 C-17.67 43.66 -17.34 44.32 -17 45 C-16.67 44.34 -16.34 43.68 -16 43 C-16.66 43 -17.32 43 -18 43 Z " fill="#F1EDE5" transform="translate(39,49)"/>
<path d="M0 0 C1.92753182 3.85506365 2.2330787 4.7639723 1.9765625 8.765625 C1.93096191 9.56774414 1.88536133 10.36986328 1.83837891 11.19628906 C1.76796387 12.20401367 1.69754883 13.21173828 1.625 14.25 C1.41875 17.4675 1.2125 20.685 1 24 C10.57 23.67 20.14 23.34 30 23 C30 27.29 30 31.58 30 36 C20.1 36 10.2 36 0 36 C0 24.12 0 12.24 0 0 Z " fill="#E7D7B7" transform="translate(59,50)"/>
<path d="M0 0 C6.0546875 -0.1953125 6.0546875 -0.1953125 8 0 C8.66 0.66 9.32 1.32 10 2 C9.66666667 3.33333333 9.33333333 4.66666667 9 6 C9.66 6.66 10.32 7.32 11 8 C11 9.32 11 10.64 11 12 C11.99 12 12.98 12 14 12 C13.67 8.04 13.34 4.08 13 0 C19.15234375 -0.09765625 19.15234375 -0.09765625 21 0 C22 1 22 1 22.125 3.4375 C22 6 22 6 21 8 C22.98 10.97 22.98 10.97 25 14 C20.75177626 13.52797514 18.80010291 11.03344482 16 8 C16 9.65 16 11.3 16 13 C16.66 13.33 17.32 13.66 18 14 C15.36 14 12.72 14 10 14 C10 14.99 10 15.98 10 17 C12.64 17.33 15.28 17.66 18 18 C16.68 18.33 15.36 18.66 14 19 C14 22.3 14 25.6 14 29 C13.67 29 13.34 29 13 29 C13 25.7 13 22.4 13 19 C11.35 19 9.7 19 8 19 C8 22.3 8 25.6 8 29 C7.34 29 6.68 29 6 29 C5.67 26.36 5.34 23.72 5 21 C4.67 23.64 4.34 26.28 4 29 C3.34 29 2.68 29 2 29 C1 22.375 1 22.375 1 19 C3.5 17.375 3.5 17.375 6 16 C6 15.67 6 15.34 6 15 C3.03 14.505 3.03 14.505 0 14 C0 9.38 0 4.76 0 0 Z " fill="#B8B1A2" transform="translate(65,90)"/>
<path d="M0 0 C2.31 0 4.62 0 7 0 C7.04938628 4.23582327 7.08571263 8.47149465 7.10986328 12.70751953 C7.11992963 14.14895547 7.1335838 15.59037095 7.15087891 17.03173828 C7.17510012 19.10193934 7.18647641 21.17187076 7.1953125 23.2421875 C7.20578613 24.4885498 7.21625977 25.73491211 7.22705078 27.01904297 C7 30 7 30 5 32 C4.85502015 34.58064129 4.81322455 37.04943884 4.875 39.625 C4.88853516 40.68460938 4.88853516 40.68460938 4.90234375 41.765625 C4.92592397 43.51056098 4.96179539 45.25532295 5 47 C3.35 47 1.7 47 0 47 C0 42.38 0 37.76 0 33 C0.99 33 1.98 33 3 33 C2.51104248 32.64639404 2.02208496 32.29278809 1.51831055 31.9284668 C-0.74180092 29.05780906 -0.33867132 26.75503455 -0.29296875 23.14453125 C-0.28872391 22.48289474 -0.28447906 21.82125824 -0.28010559 21.13957214 C-0.26333693 19.0301309 -0.22569099 16.92165154 -0.1875 14.8125 C-0.17245068 13.38087319 -0.1587627 11.94923138 -0.14648438 10.51757812 C-0.1134403 7.01140712 -0.06167167 3.50579746 0 0 Z " fill="#776D59" transform="translate(91,57)"/>
<path d="M0 0 C1.32 0 2.64 0 4 0 C7 6.625 7 6.625 7 10 C7.66 10 8.32 10 9 10 C9.103125 9.278125 9.20625 8.55625 9.3125 7.8125 C10.05986932 4.75508007 11.28045189 2.61670365 13 0 C13.99 0.33 14.98 0.66 16 1 C15.67 4.96 15.34 8.92 15 13 C15.66 13.33 16.32 13.66 17 14 C15.68 14.33 14.36 14.66 13 15 C13.61277612 17.96175123 14.25372522 19.38058783 16 22 C16.99 22 17.98 22 19 22 C18.67 23.32 18.34 24.64 18 26 C17.01 25.67 16.02 25.34 15 25 C14.67 24.34 14.34 23.68 14 23 C13.67 24.98 13.34 26.96 13 29 C9.25 30.125 9.25 30.125 7 29 C6.97274659 27.2709226 6.95349013 25.54171824 6.9375 23.8125 C6.92589844 22.84957031 6.91429687 21.88664062 6.90234375 20.89453125 C6.99513378 18.14423487 7.37888315 15.67520409 8 13 C7.34 12.67 6.68 12.34 6 12 C4.6250851 9.09740189 4 7.23861295 4 4 C3.34 4 2.68 4 2 4 C2 6.97 2 9.94 2 13 C2.66 13.33 3.32 13.66 4 14 C2.35 14 0.7 14 -1 14 C-0.67 13.34 -0.34 12.68 0 12 C0.07065617 9.95944995 0.08421976 7.91665743 0.0625 5.875 C0.05347656 4.77929688 0.04445312 3.68359375 0.03515625 2.5546875 C0.02355469 1.71164063 0.01195312 0.86859375 0 0 Z " fill="#DEDAD1" transform="translate(46,90)"/>
<path d="M0 0 C2.61481958 0.06774144 5.19979256 0.09500258 7.8125 0.0625 C8.50537109 0.05798828 9.19824219 0.05347656 9.91210938 0.04882812 C11.60811068 0.03713156 13.30406703 0.01919924 15 0 C15 0.66 15 1.32 15 2 C10.71 2.66 6.42 3.32 2 4 C2 7.96 2 11.92 2 16 C4.31 16.33 6.62 16.66 9 17 C8 20 8 20 5.0625 21.5 C4.051875 21.995 3.04125 22.49 2 23 C1.34 23.99 0.68 24.98 0 26 C-3.36720387 24.60667426 -4.9859524 23.0210714 -7 20 C-6.34 20 -5.68 20 -5 20 C-5 19.34 -5 18.68 -5 18 C-5.99 17.67 -6.98 17.34 -8 17 C-6.35 16.67 -4.7 16.34 -3 16 C-2.91917906 14.04233719 -2.86089222 12.08373272 -2.8125 10.125 C-2.76029297 8.48917969 -2.76029297 8.48917969 -2.70703125 6.8203125 C-2.85205078 5.42425781 -2.85205078 5.42425781 -3 4 C-3.99 3.34 -4.98 2.68 -6 2 C-6.99 2.66 -7.98 3.32 -9 4 C-8.6875 2.0625 -8.6875 2.0625 -8 0 C-4.56957962 -1.14347346 -3.47132729 -0.7020118 0 0 Z " fill="#FAF8F1" transform="translate(64,87)"/>
<path d="M0 0 C-0.33 0.99 -0.66 1.98 -1 3 C-1.25003964 6.54178598 -1.25003964 6.54178598 -1 10 C1.35953094 12.35953094 2.77895617 12.49141413 6 13 C5.34 11.02 4.68 9.04 4 7 C5.65 7 7.3 7 9 7 C8.67 9.31 8.34 11.62 8 14 C7.11957031 14.06058594 6.23914063 14.12117188 5.33203125 14.18359375 C3.58986328 14.30927734 3.58986328 14.30927734 1.8125 14.4375 C0.08966797 14.55931641 0.08966797 14.55931641 -1.66796875 14.68359375 C-4.51598171 14.95403812 -7.21210482 15.37521747 -10 16 C-10 15.34 -10 14.68 -10 14 C-10.66 13.34 -11.32 12.68 -12 12 C-11.34 11.34 -10.68 10.68 -10 10 C-9.83322718 6.41656024 -9.83322718 6.41656024 -10 3 C-12.31 2.34 -14.62 1.68 -17 1 C-16.91306859 2.79258558 -16.80489496 4.58415144 -16.6875 6.375 C-16.62949219 7.37273437 -16.57148437 8.37046875 -16.51171875 9.3984375 C-16.34285156 10.25695312 -16.17398438 11.11546875 -16 12 C-15.01 12.66 -14.02 13.32 -13 14 C-15.31 14 -17.62 14 -20 14 C-20 9.38 -20 4.76 -20 0 C-17.22949974 -0.1946838 -14.45886998 -0.38102792 -11.6875 -0.5625 C-10.90181641 -0.61857422 -10.11613281 -0.67464844 -9.30664062 -0.73242188 C-8.1706543 -0.80493164 -8.1706543 -0.80493164 -7.01171875 -0.87890625 C-6.31522217 -0.9260376 -5.61872559 -0.97316895 -4.90112305 -1.02172852 C-3 -1 -3 -1 0 0 Z " fill="#F6F3E7" transform="translate(119,90)"/>
<path d="M0 0 C2.93804996 -0.08086376 5.87388075 -0.1404283 8.8125 -0.1875 C9.64587891 -0.21263672 10.47925781 -0.23777344 11.33789062 -0.26367188 C12.54155273 -0.27817383 12.54155273 -0.27817383 13.76953125 -0.29296875 C14.87711792 -0.31653442 14.87711792 -0.31653442 16.00708008 -0.34057617 C18.56964924 0.0973491 19.430711 0.96474774 21 3 C21.4375 5.5 21.4375 5.5 21 8 C18.62130509 10.65315971 17.32875347 10.98103345 13.75 11.1875 C12.8425 11.125625 11.935 11.06375 11 11 C10.34 9.35 9.68 7.7 9 6 C6.69 6 4.38 6 2 6 C2 6.99 2 7.98 2 9 C4.31 9 6.62 9 9 9 C9 9.66 9 10.32 9 11 C6.03 11 3.06 11 0 11 C0 7.37 0 3.74 0 0 Z " fill="#BFB7AA" transform="translate(84,108)"/>
<path d="M0 0 C8.25 0 16.5 0 25 0 C25 2.31 25 4.62 25 7 C16.75 7 8.5 7 0 7 C0 4.69 0 2.38 0 0 Z " fill="#A78F65" transform="translate(115,75)"/>
<path d="M0 0 C0.99 0.33 1.98 0.66 3 1 C2.34 1 1.68 1 1 1 C0.9175 1.66 0.835 2.32 0.75 3 C-0.26020317 7.0408127 -1.98769751 11.98769751 -5 15 C-6.99958364 15.04080783 -9.00045254 15.04254356 -11 15 C-10.67 12.69 -10.34 10.38 -10 8 C-12.31 8 -14.62 8 -17 8 C-17 9.98 -17 11.96 -17 14 C-16.34 14.33 -15.68 14.66 -15 15 C-16.65 15 -18.3 15 -20 15 C-20 10.38 -20 5.76 -20 1 C-18.35 1 -16.7 1 -15 1 C-15.99 1.495 -15.99 1.495 -17 2 C-17 3.65 -17 5.3 -17 7 C-14.69 7 -12.38 7 -10 7 C-10.33 5.02 -10.66 3.04 -11 1 C-9.02 1 -7.04 1 -5 1 C-5 1.66 -5 2.32 -5 3 C-4.236875 2.484375 -3.47375 1.96875 -2.6875 1.4375 C-1.800625 0.963125 -0.91375 0.48875 0 0 Z M-7 3 C-6.67 3.66 -6.34 4.32 -6 5 C-5.67 4.34 -5.34 3.68 -5 3 C-5.66 3 -6.32 3 -7 3 Z " fill="#EFEDE3" transform="translate(28,89)"/>
<path d="M0 0 C0.33 0 0.66 0 1 0 C1 9.9 1 19.8 1 30 C1.99 30.33 2.98 30.66 4 31 C4 31.66 4 32.32 4 33 C-0.95 33.33 -5.9 33.66 -11 34 C-11 37.63 -11 41.26 -11 45 C-11.99 45 -12.98 45 -14 45 C-14.185625 44.071875 -14.185625 44.071875 -14.375 43.125 C-14.87197356 40.80879168 -14.87197356 40.80879168 -17 39 C-16.70630173 37.65737935 -16.3721042 36.32303717 -16 35 C-16.33 34.34 -16.66 33.68 -17 33 C-14.03 32.505 -14.03 32.505 -11 32 C-11 31.34 -11 30.68 -11 30 C-12.13179687 30.09539062 -13.26359375 30.19078125 -14.4296875 30.2890625 C-15.91141612 30.40159885 -17.39318945 30.51354758 -18.875 30.625 C-19.62136719 30.68945312 -20.36773437 30.75390625 -21.13671875 30.8203125 C-23.0870047 30.96087365 -25.04469467 30.98759849 -27 31 C-27.66 30.34 -28.32 29.68 -29 29 C-19.43 29 -9.86 29 0 29 C0 19.43 0 9.86 0 0 Z " fill="#DED8CB" transform="translate(90,57)"/>
<path d="M0 0 C1.66611905 -0.042721 3.33382885 -0.04063832 5 0 C6 1 6 1 6.1328125 3.65234375 C6.13023438 4.73644531 6.12765625 5.82054688 6.125 6.9375 C6.12886719 8.55978516 6.12886719 8.55978516 6.1328125 10.21484375 C6 13 6 13 5 15 C2.4375 15.625 2.4375 15.625 0 16 C0.33 16.66 0.66 17.32 1 18 C0.01 18 -0.98 18 -2 18 C-2 18.66 -2 19.32 -2 20 C-3.32 20 -4.64 20 -6 20 C-6 22.97 -6 25.94 -6 29 C-6.33 29 -6.66 29 -7 29 C-7.02688151 27.35425434 -7.04634123 25.70838587 -7.0625 24.0625 C-7.07410156 23.14597656 -7.08570312 22.22945312 -7.09765625 21.28515625 C-7 19 -7 19 -6 18 C-7.65 17.67 -9.3 17.34 -11 17 C-11 16.01 -11 15.02 -11 14 C-9.02 13.67 -7.04 13.34 -5 13 C-5 11.35 -5 9.7 -5 8 C-1.83884224 9.36983503 -1.0072908 9.9890638 1 13 C1.33 12.67 1.66 12.34 2 12 C1.01 10.35 0.02 8.7 -1 7 C-0.67 6.67 -0.34 6.34 0 6 C0.04080783 4.00041636 0.04254356 1.99954746 0 0 Z " fill="#F1ECE1" transform="translate(86,90)"/>
<path d="M0 0 C0.94875 0.04125 1.8975 0.0825 2.875 0.125 C3.205 1.115 3.535 2.105 3.875 3.125 C4.535 3.125 5.195 3.125 5.875 3.125 C6.205 2.465 6.535 1.805 6.875 1.125 C7.535 1.125 8.195 1.125 8.875 1.125 C10.15817892 4.97453676 9.94143637 8.07238135 9.875 12.125 C5.97471775 14.72518816 2.40065431 14.27585514 -2.125 14.125 C-2.125 13.795 -2.125 13.465 -2.125 13.125 C0.185 13.125 2.495 13.125 4.875 13.125 C5.205 10.815 5.535 8.505 5.875 6.125 C4.555 6.455 3.235 6.785 1.875 7.125 C2.205 8.775 2.535 10.425 2.875 12.125 C0.17186424 12.34417317 -1.56458382 12.45351983 -3.9375 11.0625 C-5.771921 8.06949731 -5.43607576 5.54683337 -5.125 2.125 C-3.125 0.125 -3.125 0.125 0 0 Z " fill="#FAF9F1" transform="translate(122.125,90.875)"/>
<path d="M0 0 C8.91 0 17.82 0 27 0 C26.01 0.495 26.01 0.495 25 1 C25 1.66 25 2.32 25 3 C22.03 3.99 19.06 4.98 16 6 C16 5.34 16 4.68 16 4 C14.35 4.33 12.7 4.66 11 5 C11 6.65 11 8.3 11 10 C8.69 10 6.38 10 4 10 C4 8.35 4 6.7 4 5 C2.68 5 1.36 5 0 5 C0 3.35 0 1.7 0 0 Z M14 6 C14.99 6.495 14.99 6.495 16 7 C15.01 7.495 15.01 7.495 14 8 C14 7.34 14 6.68 14 6 Z " fill="#F2EBE3" transform="translate(7,86)"/>
<path d="M0 0 C0.66 0 1.32 0 2 0 C2.99 2.64 3.98 5.28 5 8 C5.66 8 6.32 8 7 8 C7 9.98 7 11.96 7 14 C6.34 14 5.68 14 5 14 C5 16.64 5 19.28 5 22 C4.67 22 4.34 22 4 22 C4 19.36 4 16.72 4 14 C3.21625 14.515625 2.4325 15.03125 1.625 15.5625 C0.75875 16.036875 -0.1075 16.51125 -1 17 C-1.66 16.67 -2.32 16.34 -3 16 C-3 18.31 -3 20.62 -3 23 C-1.02 23 0.96 23 3 23 C3 23.66 3 24.32 3 25 C0.36 25 -2.28 25 -5 25 C-5 21.37 -5 17.74 -5 14 C-4.01 13.67 -3.02 13.34 -2 13 C-0.03683193 10.06174846 0.22746706 7.73387991 0.125 4.25 C0.10695313 3.45078125 0.08890625 2.6515625 0.0703125 1.828125 C0.04710937 1.22484375 0.02390625 0.6215625 0 0 Z " fill="#FAF7EE" transform="translate(48,94)"/>
<path d="M0 0 C0.66 0 1.32 0 2 0 C2 9.57 2 19.14 2 29 C7.61 29.33 13.22 29.66 19 30 C19 30.66 19 31.32 19 32 C17.3338256 32.17151795 15.66702161 32.3369218 14 32.5 C13.071875 32.5928125 12.14375 32.685625 11.1875 32.78125 C7.46637298 33.03662146 3.72987947 33 0 33 C0 22.11 0 11.22 0 0 Z " fill="#F4ECE2" transform="translate(108,57)"/>
<path d="M0 0 C0.99 0 1.98 0 3 0 C3 12.21 3 24.42 3 37 C2.01 37 1.02 37 0 37 C0 24.79 0 12.58 0 0 Z " fill="#4A3D26" transform="translate(41,49)"/>
<path d="M0 0 C0.99 0 1.98 0 3 0 C3 12.21 3 24.42 3 37 C2.01 37 1.02 37 0 37 C0 24.79 0 12.58 0 0 Z " fill="#4D3E26" transform="translate(51,49)"/>
<path d="M0 0 C0.99 0 1.98 0 3 0 C3 12.21 3 24.42 3 37 C2.01 37 1.02 37 0 37 C0 24.79 0 12.58 0 0 Z " fill="#483D28" transform="translate(46,49)"/>
<path d="M0 0 C6.15234375 -0.09765625 6.15234375 -0.09765625 8 0 C9 1 9 1 9.125 3.4375 C9 6 9 6 8 8 C9.98 10.97 9.98 10.97 12 14 C7.75177626 13.52797514 5.80010291 11.03344482 3 8 C3 9.65 3 11.3 3 13 C3.66 13.33 4.32 13.66 5 14 C3.02 14 1.04 14 -1 14 C-0.34 13.67 0.32 13.34 1 13 C0.67 8.71 0.34 4.42 0 0 Z " fill="#544C3E" transform="translate(78,90)"/>
<path d="M0 0 C9.9 0 19.8 0 30 0 C30 0.99 30 1.98 30 3 C20.1 3 10.2 3 0 3 C0 2.01 0 1.02 0 0 Z " fill="#8B7452" transform="translate(7,111)"/>
<path d="M0 0 C9.9 0 19.8 0 30 0 C30 0.99 30 1.98 30 3 C20.1 3 10.2 3 0 3 C0 2.01 0 1.02 0 0 Z " fill="#8A7450" transform="translate(110,111)"/>
<path d="M0 0 C6.875 0.875 6.875 0.875 8 2 C8.23961213 6.23314767 8.32488647 9.36736489 6 13 C4.02 12.34 2.04 11.68 0 11 C0 7.37 0 3.74 0 0 Z " fill="#F5F4EB" transform="translate(102,91)"/>
<path d="M0 0 C0.99 0 1.98 0 3 0 C3 9.57 3 19.14 3 29 C2.01 29 1.02 29 0 29 C0 19.43 0 9.86 0 0 Z " fill="#493D27" transform="translate(110,57)"/>
<path d="M0 0 C0.99 0 1.98 0 3 0 C3 9.57 3 19.14 3 29 C2.01 29 1.02 29 0 29 C0 19.43 0 9.86 0 0 Z " fill="#4D3E27" transform="translate(100,57)"/>
<path d="M0 0 C0.99 0 1.98 0 3 0 C3 9.57 3 19.14 3 29 C2.01 29 1.02 29 0 29 C0 19.43 0 9.86 0 0 Z " fill="#4D3D26" transform="translate(105,57)"/>
<path d="M0 0 C1.32 0.66 2.64 1.32 4 2 C3.484375 2.37125 2.96875 2.7425 2.4375 3.125 C0.65895477 5.02101482 0.65895477 5.02101482 1.1875 8.125 C1.455625 9.07375 1.72375 10.0225 2 11 C2.66 11.33 3.32 11.66 4 12 C3.01 12.99 2.02 13.98 1 15 C0.67 14.01 0.34 13.02 0 12 C-0.33 12.33 -0.66 12.66 -1 13 C-2.66617115 13.04063832 -4.33388095 13.042721 -6 13 C-6 11.02 -6 9.04 -6 7 C-4.68 7.33 -3.36 7.66 -2 8 C-2 7.34 -2 6.68 -2 6 C-3.32 6 -4.64 6 -6 6 C-6 4.35 -6 2.7 -6 1 C-3.525 1.495 -3.525 1.495 -1 2 C-0.67 1.34 -0.34 0.68 0 0 Z " fill="#F9F6F2" transform="translate(140,90)"/>
<path d="M0 0 C8.91 0 17.82 0 27 0 C27 0.99 27 1.98 27 3 C18.09 3 9.18 3 0 3 C0 2.01 0 1.02 0 0 Z " fill="#887249" transform="translate(61,83)"/>
<path d="M0 0 C8.91 0 17.82 0 27 0 C27 0.99 27 1.98 27 3 C18.09 3 9.18 3 0 3 C0 2.01 0 1.02 0 0 Z " fill="#8D7345" transform="translate(61,79)"/>
<path d="M0 0 C8.91 0 17.82 0 27 0 C27 0.99 27 1.98 27 3 C18.09 3 9.18 3 0 3 C0 2.01 0 1.02 0 0 Z " fill="#8E764C" transform="translate(61,75)"/>
<path d="M0 0 C8.91 0 17.82 0 27 0 C27 0.99 27 1.98 27 3 C18.09 3 9.18 3 0 3 C0 2.01 0 1.02 0 0 Z " fill="#8C744A" transform="translate(61,71)"/>
<path d="M0 0 C8.91 0 17.82 0 27 0 C27 0.99 27 1.98 27 3 C18.09 3 9.18 3 0 3 C0 2.01 0 1.02 0 0 Z " fill="#8F774C" transform="translate(61,50)"/>
<path d="M0 0 C8.91 0 17.82 0 27 0 C27 0.99 27 1.98 27 3 C18.09 3 9.18 3 0 3 C0 2.01 0 1.02 0 0 Z " fill="#8D7044" transform="translate(61,46)"/>
<path d="M0 0 C8.91 0 17.82 0 27 0 C27 0.99 27 1.98 27 3 C18.09 3 9.18 3 0 3 C0 2.01 0 1.02 0 0 Z " fill="#8F754A" transform="translate(61,42)"/>
<path d="M0 0 C8.91 0 17.82 0 27 0 C27 0.99 27 1.98 27 3 C18.09 3 9.18 3 0 3 C0 2.01 0 1.02 0 0 Z " fill="#887045" transform="translate(61,38)"/>
<path d="M0 0 C8.58 0 17.16 0 26 0 C26 0.99 26 1.98 26 3 C17.42 3 8.84 3 0 3 C0 2.01 0 1.02 0 0 Z " fill="#8E7244" transform="translate(8,79)"/>
<path d="M0 0 C8.58 0 17.16 0 26 0 C26 0.99 26 1.98 26 3 C17.42 3 8.84 3 0 3 C0 2.01 0 1.02 0 0 Z " fill="#8C7348" transform="translate(8,71)"/>
<path d="M0 0 C8.58 0 17.16 0 26 0 C26 0.99 26 1.98 26 3 C17.42 3 8.84 3 0 3 C0 2.01 0 1.02 0 0 Z " fill="#8F754A" transform="translate(8,67)"/>
<path d="M0 0 C8.58 0 17.16 0 26 0 C26 0.99 26 1.98 26 3 C17.42 3 8.84 3 0 3 C0 2.01 0 1.02 0 0 Z " fill="#8E764E" transform="translate(8,63)"/>
<path d="M0 0 C8.25 0 16.5 0 25 0 C25 0.99 25 1.98 25 3 C16.75 3 8.5 3 0 3 C0 2.01 0 1.02 0 0 Z " fill="#87724B" transform="translate(115,83)"/>
<path d="M0 0 C8.25 0 16.5 0 25 0 C25 0.99 25 1.98 25 3 C16.75 3 8.5 3 0 3 C0 2.01 0 1.02 0 0 Z " fill="#8E7449" transform="translate(115,79)"/>
<path d="M0 0 C8.25 0 16.5 0 25 0 C25 0.99 25 1.98 25 3 C16.75 3 8.5 3 0 3 C0 2.01 0 1.02 0 0 Z " fill="#8F744C" transform="translate(115,70)"/>
<path d="M0 0 C8.25 0 16.5 0 25 0 C25 0.99 25 1.98 25 3 C16.75 3 8.5 3 0 3 C0 2.01 0 1.02 0 0 Z " fill="#887249" transform="translate(115,66)"/>
<path d="M0 0 C1.65 0 3.3 0 5 0 C4.01 0.495 4.01 0.495 3 1 C3 2.65 3 4.3 3 6 C5.31 6 7.62 6 10 6 C9.67 4.02 9.34 2.04 9 0 C10.32 0.33 11.64 0.66 13 1 C13 5.29 13 9.58 13 14 C11.68 13.67 10.36 13.34 9 13 C9.33 11.02 9.66 9.04 10 7 C7.69 7 5.38 7 3 7 C3 8.98 3 10.96 3 13 C3.66 13.33 4.32 13.66 5 14 C3.35 14 1.7 14 0 14 C0 9.38 0 4.76 0 0 Z " fill="#514A3C" transform="translate(8,90)"/>
<path d="M0 0 C0.66 0.99 1.32 1.98 2 3 C2.99 2.67 3.98 2.34 5 2 C5.04241723 4.33294775 5.04092937 6.66702567 5 9 C4.67 9.33 4.34 9.66 4 10 C4.66 10.66 5.32 11.32 6 12 C5.01 13.485 5.01 13.485 4 15 C3.01 15 2.02 15 1 15 C0.67 15.99 0.34 16.98 0 18 C-0.12375 17.195625 -0.2475 16.39125 -0.375 15.5625 C-0.684375 14.2940625 -0.684375 14.2940625 -1 13 C-1.66 12.67 -2.32 12.34 -3 12 C-2.01 11.34 -1.02 10.68 0 10 C0.36416047 7.56306689 0.36416047 7.56306689 0.1875 4.875 C0.16042969 3.96492188 0.13335937 3.05484375 0.10546875 2.1171875 C0.05326172 1.06917969 0.05326172 1.06917969 0 0 Z " fill="#F9F7EF" transform="translate(42,93)"/>
<path d="M0 0 C1.98 0 3.96 0 6 0 C6.66 0.66 7.32 1.32 8 2 C7.5625 4.0625 7.5625 4.0625 7 6 C7.33 6.33 7.66 6.66 8 7 C8.04063832 8.66617115 8.042721 10.33388095 8 12 C7.01 12 6.02 12 5 12 C5 10.68 5 9.36 5 8 C3.68 7.67 2.36 7.34 1 7 C1 8.98 1 10.96 1 13 C0.67 13 0.34 13 0 13 C0 8.71 0 4.42 0 0 Z " fill="#473D2F" transform="translate(67,90)"/>
<path d="M0 0 C8.13448006 -0.35887412 8.13448006 -0.35887412 11.5625 1.0625 C13.79083695 4.06591067 13.45264211 6.37886313 13 10 C11.5 11.9375 11.5 11.9375 10 13 C9.34 12.67 8.68 12.34 8 12 C8.66 11.34 9.32 10.68 10 10 C10.16677282 6.41656024 10.16677282 6.41656024 10 3 C7.69 2.34 5.38 1.68 3 1 C3.08693141 2.79258558 3.19510504 4.58415144 3.3125 6.375 C3.37050781 7.37273437 3.42851563 8.37046875 3.48828125 9.3984375 C3.65714844 10.25695312 3.82601562 11.11546875 4 12 C4.99 12.66 5.98 13.32 7 14 C4.69 14 2.38 14 0 14 C0 9.38 0 4.76 0 0 Z " fill="#544C41" transform="translate(99,90)"/>
<path d="M0 0 C0.66 0 1.32 0 2 0 C3.65 4.62 5.3 9.24 7 14 C5.68 13.67 4.36 13.34 3 13 C3 11.68 3 10.36 3 9 C1.35 9 -0.3 9 -2 9 C-2.33 10.32 -2.66 11.64 -3 13 C-2.34 13.33 -1.68 13.66 -1 14 C-2.65 14 -4.3 14 -6 14 C-4.02 9.38 -2.04 4.76 0 0 Z " fill="#575045" transform="translate(29,90)"/>
<path d="M0 0 C9.9 0 19.8 0 30 0 C29.01 0.33 28.02 0.66 27 1 C26.67 1.66 26.34 2.32 26 3 C17.42 3 8.84 3 0 3 C0 2.01 0 1.02 0 0 Z " fill="#F6EFE6" transform="translate(110,114)"/>
<path d="M0 0 C2.97 0 5.94 0 9 0 C8.67 0.99 8.34 1.98 8 3 C5.525 2.01 5.525 2.01 3 1 C3 2.65 3 4.3 3 6 C4.65 5.67 6.3 5.34 8 5 C7.67 6.32 7.34 7.64 7 9 C5.68 8.34 4.36 7.68 3 7 C3 8.98 3 10.96 3 13 C6.93075644 12.42547254 6.93075644 12.42547254 10 10 C9.67 11.32 9.34 12.64 9 14 C5.7 14 2.4 14 -1 14 C-0.34 13.67 0.32 13.34 1 13 C0.67 8.71 0.34 4.42 0 0 Z " fill="#595244" transform="translate(131,90)"/>
<path d="M0 0 C6.27 0 12.54 0 19 0 C19 0.66 19 1.32 19 2 C16.03 2.99 13.06 3.98 10 5 C10 4.34 10 3.68 10 3 C7.69 2.67 5.38 2.34 3 2 C3 2.66 3 3.32 3 4 C2.34 4 1.68 4 1 4 C0.67 2.68 0.34 1.36 0 0 Z M8 5 C8.99 5.495 8.99 5.495 10 6 C9.01 6.495 9.01 6.495 8 7 C8 6.34 8 5.68 8 5 Z " fill="#FCFAF6" transform="translate(13,87)"/>
<path d="M0 0 C0.66 0 1.32 0 2 0 C2.33 3.63 2.66 7.26 3 11 C2.34 11 1.68 11 1 11 C1 10.34 1 9.68 1 9 C-0.98 9 -2.96 9 -5 9 C-5 6.69 -5 4.38 -5 2 C-4.360625 1.855625 -3.72125 1.71125 -3.0625 1.5625 C-1.02454854 1.18992819 -1.02454854 1.18992819 0 0 Z " fill="#FCF9EE" transform="translate(50,108)"/>
<path d="M0 0 C2.375 -0.125 2.375 -0.125 5 0 C7 2 7 2 7.1875 4.5625 C7 7 7 7 6 8 C4.00041636 8.04080783 1.99954746 8.04254356 0 8 C0 5.36 0 2.72 0 0 Z " fill="#FAF8F0" transform="translate(96,109)"/>
<path d="M0 0 C0.66 0.33 1.32 0.66 2 1 C1.67 1.33 1.34 1.66 1 2 C0.74996036 5.45821402 0.74996036 5.45821402 1 9 C3.35953094 11.35953094 4.77895617 11.49141413 8 12 C7.34 10.02 6.68 8.04 6 6 C7.65 6 9.3 6 11 6 C10.67 8.31 10.34 10.62 10 13 C2.77108434 13.48192771 2.77108434 13.48192771 -0.5 11.4375 C-2.5390434 8.12405448 -2.42431591 5.81884318 -2 2 C-1.34 1.34 -0.68 0.68 0 0 Z " fill="#524C41" transform="translate(117,91)"/>
<path d="M0 0 C6.27 0.33 12.54 0.66 19 1 C19 1.66 19 2.32 19 3 C12.63849395 3.65486092 6.39628979 4.12068471 0 4 C0 2.68 0 1.36 0 0 Z " fill="#FCFBF9" transform="translate(108,86)"/>
<path d="M0 0 C0.66 0 1.32 0 2 0 C2.33 2.31 2.66 4.62 3 7 C4.65 7.33 6.3 7.66 8 8 C8 9.98 8 11.96 8 14 C5.36 14 2.72 14 0 14 C0 9.38 0 4.76 0 0 Z " fill="#938A7F" transform="translate(65,90)"/>
<path d="M0 0 C2.64 0 5.28 0 8 0 C8 0.33 8 0.66 8 1 C5.69 1 3.38 1 1 1 C1 1.99 1 2.98 1 4 C2.65 4 4.3 4 6 4 C6 4.66 6 5.32 6 6 C4.68 6 3.36 6 2 6 C2 6.99 2 7.98 2 9 C4.31 9 6.62 9 9 9 C9 9.66 9 10.32 9 11 C6.03 11 3.06 11 0 11 C0 7.37 0 3.74 0 0 Z " fill="#9E9485" transform="translate(84,108)"/>
<path d="M0 0 C1.32 0 2.64 0 4 0 C7 6.625 7 6.625 7 10 C7.66 10 8.32 10 9 10 C8.67 10.99 8.34 11.98 8 13 C5.18167487 11.59083743 4.97406539 9.92219617 4 7 C4 6.01 4 5.02 4 4 C3.34 4 2.68 4 2 4 C2 6.97 2 9.94 2 13 C2.66 13.33 3.32 13.66 4 14 C2.35 14 0.7 14 -1 14 C-0.67 13.34 -0.34 12.68 0 12 C0.07065617 9.95944995 0.08421976 7.91665743 0.0625 5.875 C0.05347656 4.77929688 0.04445312 3.68359375 0.03515625 2.5546875 C0.02355469 1.71164063 0.01195312 0.86859375 0 0 Z " fill="#585044" transform="translate(46,90)"/>
<path d="M0 0 C1.65 0 3.3 0 5 0 C5 4.62 5 9.24 5 14 C3.35 14 1.7 14 0 14 C0 9.38 0 4.76 0 0 Z " fill="#70685C" transform="translate(91,90)"/>
<path d="M0 0 C1.65 0 3.3 0 5 0 C5 4.62 5 9.24 5 14 C3.35 14 1.7 14 0 14 C0 9.38 0 4.76 0 0 Z " fill="#736A5F" transform="translate(38,90)"/>
<path d="M0 0 C0.99 0.33 1.98 0.66 3 1 C2.67 4.96 2.34 8.92 2 13 C2.66 13.33 3.32 13.66 4 14 C2.02 14 0.04 14 -2 14 C-1.34 13.67 -0.68 13.34 0 13 C-0.33 10.69 -0.66 8.38 -1 6 C-1.99 7.32 -2.98 8.64 -4 10 C-3.43454163 6.04179141 -2.19097652 3.3340947 0 0 Z " fill="#5A5346" transform="translate(59,90)"/>
<path d="M0 0 C0.99 0 1.98 0 3 0 C3 0.99 3 1.98 3 3 C11.25 3 19.5 3 28 3 C28 3.33 28 3.66 28 4 C19.75 4 11.5 4 3 4 C2.67 4.99 2.34 5.98 2 7 C1.34 4.69 0.68 2.38 0 0 Z " fill="#EAD9B8" transform="translate(58,38)"/>
<path d="M0 0 C3 1 3 1 5 4 C5.99 4 6.98 4 8 4 C7.67 5.32 7.34 6.64 7 8 C6.01 7.67 5.02 7.34 4 7 C3.67 6.34 3.34 5.68 3 5 C2.67 6.98 2.34 8.96 2 11 C1.34 11 0.68 11 0 11 C0 7.37 0 3.74 0 0 Z " fill="#9F978A" transform="translate(57,108)"/>
<path d="M0 0 C0 3.3 0 6.6 0 10 C-0.99 10 -1.98 10 -3 10 C-3.185625 9.071875 -3.185625 9.071875 -3.375 8.125 C-3.87197356 5.80879168 -3.87197356 5.80879168 -6 4 C-2.25 0 -2.25 0 0 0 Z " fill="#FCF9EF" transform="translate(79,92)"/>
<path d="M0 0 C0.33 0.99 0.66 1.98 1 3 C8.92 3 16.84 3 25 3 C25 3.33 25 3.66 25 4 C17.08 4 9.16 4 1 4 C1 4.99 1 5.98 1 7 C0.34 7 -0.32 7 -1 7 C-0.67 4.69 -0.34 2.38 0 0 Z " fill="#E5D3AD" transform="translate(60,79)"/>
<path d="M0 0 C0.66 0 1.32 0 2 0 C2 0.99 2 1.98 2 3 C8.93 3 15.86 3 23 3 C23 3.33 23 3.66 23 4 C16.07 4 9.14 4 2 4 C1.67 4.99 1.34 5.98 1 7 C0.67 6.01 0.34 5.02 0 4 C-0.99 3.34 -1.98 2.68 -3 2 C-2.01 2 -1.02 2 0 2 C0 1.34 0 0.68 0 0 Z " fill="#E0CDAA" transform="translate(59,46)"/>
<path d="M0 0 C0.66 0 1.32 0 2 0 C2 2.97 2 5.94 2 9 C3.98 9 5.96 9 8 9 C8 9.66 8 10.32 8 11 C5.36 11 2.72 11 0 11 C0 7.37 0 3.74 0 0 Z " fill="#A39887" transform="translate(43,108)"/>
<path d="M0 0 C1.65 0 3.3 0 5 0 C5 2.97 5 5.94 5 9 C4.34 8.01 3.68 7.02 3 6 C2.01 6.33 1.02 6.66 0 7 C0 4.69 0 2.38 0 0 Z " fill="#F0EBD9" transform="translate(73,109)"/>
<path d="M0 0 C0.33 0 0.66 0 1 0 C1 1.65 1 3.3 1 5 C1.66 5.33 2.32 5.66 3 6 C3.33 6.66 3.66 7.32 4 8 C4.99 8.66 5.98 9.32 7 10 C6.67 10.99 6.34 11.98 6 13 C4.02 12.34 2.04 11.68 0 11 C0 7.37 0 3.74 0 0 Z " fill="#E1DBD5" transform="translate(102,91)"/>
<path d="M0 0 C0.66 0 1.32 0 2 0 C3.32 3.3 4.64 6.6 6 10 C3.03 9.505 3.03 9.505 0 9 C0 6.03 0 3.06 0 0 Z " fill="#DCD6CC" transform="translate(48,94)"/>
<path d="M0 0 C0.33 0 0.66 0 1 0 C1.33 2.31 1.66 4.62 2 7 C1.34 7 0.68 7 0 7 C0 6.34 0 5.68 0 5 C-2.31 5 -4.62 5 -7 5 C-7 4.01 -7 3.02 -7 2 C-4.69 2 -2.38 2 0 2 C0 1.34 0 0.68 0 0 Z " fill="#FDFAF0" transform="translate(93,112)"/>
<path d="M0 0 C1.6875 2 1.6875 2 3 4 C-3.625 6 -3.625 6 -7 6 C-5.61469317 1.84407951 -4.52657396 0 0 0 Z " fill="#F6F3E8" transform="translate(116,100)"/>
<path d="M0 0 C2.31 0 4.62 0 7 0 C7 1.98 7 3.96 7 6 C6.01 6.495 6.01 6.495 5 7 C5 5.68 5 4.36 5 3 C3.68 2.67 2.36 2.34 1 2 C0.67 3.32 0.34 4.64 0 6 C0 4.02 0 2.04 0 0 Z " fill="#EFEBDF" transform="translate(11,97)"/>
<path d="M0 0 C1.65 0 3.3 0 5 0 C5.33 1.32 5.66 2.64 6 4 C1.25 5.125 1.25 5.125 -1 4 C-0.67 2.68 -0.34 1.36 0 0 Z " fill="#F3EFE4" transform="translate(27,99)"/>
<path d="M0 0 C1.875 0.25 1.875 0.25 4 1 C5.25 3.0625 5.25 3.0625 6 5 C5 6 5 6 2.4375 6.0625 C1.2309375 6.0315625 1.2309375 6.0315625 0 6 C0 4.02 0 2.04 0 0 Z " fill="#EBE9DA" transform="translate(134,97)"/>
<path d="M0 0 C0.66 0.33 1.32 0.66 2 1 C2 2.65 2 4.3 2 6 C1.01 5.34 0.02 4.68 -1 4 C-1.99 4.33 -2.98 4.66 -4 5 C-4.33 4.34 -4.66 3.68 -5 3 C-8.02934491 2.34227572 -8.02934491 2.34227572 -11 2 C-11 1.67 -11 1.34 -11 1 C-10.06027344 1.01740234 -10.06027344 1.01740234 -9.1015625 1.03515625 C-7.87566406 1.04869141 -7.87566406 1.04869141 -6.625 1.0625 C-5.40683594 1.07990234 -5.40683594 1.07990234 -4.1640625 1.09765625 C-1.95062858 1.14466334 -1.95062858 1.14466334 0 0 Z " fill="#B0ADA2" transform="translate(130,89)"/>
<path d="M0 0 C0.33 0 0.66 0 1 0 C1 2.31 1 4.62 1 7 C-2.90028225 9.60018816 -6.47434569 9.15085514 -11 9 C-11 8.67 -11 8.34 -11 8 C-8.69 8 -6.38 8 -4 8 C-4 6.35 -4 4.7 -4 3 C-3.01 3.33 -2.02 3.66 -1 4 C-0.67 2.68 -0.34 1.36 0 0 Z " fill="#EEEAE1" transform="translate(131,96)"/>
<path d="M0 0 C3.3 0 6.6 0 10 0 C10 0.99 10 1.98 10 3 C6.7 3 3.4 3 0 3 C0 2.01 0 1.02 0 0 Z " fill="#FCF7EE" transform="translate(129,87)"/>
<path d="M0 0 C0.94875 0.04125 1.8975 0.0825 2.875 0.125 C3.205 1.115 3.535 2.105 3.875 3.125 C3.09125 2.91875 2.3075 2.7125 1.5 2.5 C0.63375 2.37625 -0.2325 2.2525 -1.125 2.125 C-3.48453094 4.48453094 -3.61641413 5.90395617 -4.125 9.125 C-4.455 9.125 -4.785 9.125 -5.125 9.125 C-5.25 5.75 -5.25 5.75 -5.125 2.125 C-3.125 0.125 -3.125 0.125 0 0 Z " fill="#EBE9E3" transform="translate(122.125,90.875)"/>
<path d="M0 0 C0.66 0 1.32 0 2 0 C2.98120464 3.05263664 2.98120464 4.94736336 2 8 C1.01 8 0.02 8 -1 8 C-2.2077558 4.37673261 -1.54311128 3.35853631 0 0 Z " fill="#969185" transform="translate(29,90)"/>
<path d="M0 0 C2.475 0.495 2.475 0.495 5 1 C5 1.99 5 2.98 5 4 C3.35 4.33 1.7 4.66 0 5 C0 3.35 0 1.7 0 0 Z " fill="#F1EEDF" transform="translate(134,91)"/>
<path d="M0 0 C3.3 0.33 6.6 0.66 10 1 C9.67 1.99 9.34 2.98 9 4 C6 5 6 5 3.375 4.25 C1 3 1 3 0 0 Z " fill="#FCFBF8" transform="translate(63,103)"/>
<path d="M0 0 C0.99 1.485 0.99 1.485 2 3 C2.99 2.67 3.98 2.34 5 2 C5 3.32 5 4.64 5 6 C4.360625 6.12375 3.72125 6.2475 3.0625 6.375 C2.0415625 6.684375 2.0415625 6.684375 1 7 C0.67 7.66 0.34 8.32 0 9 C0 6.03 0 3.06 0 0 Z " fill="#FDFCF7" transform="translate(42,93)"/>
<path d="M0 0 C2.475 0.495 2.475 0.495 5 1 C4.67 2.32 4.34 3.64 4 5 C2.68 5 1.36 5 0 5 C0 3.35 0 1.7 0 0 Z " fill="#DAD7CB" transform="translate(68,91)"/>
<path d="M0 0 C1.65 0 3.3 0 5 0 C5 0.99 5 1.98 5 3 C4.34 3 3.68 3 3 3 C2.34 4.32 1.68 5.64 1 7 C0.67 7 0.34 7 0 7 C0 4.69 0 2.38 0 0 Z " fill="#F0EBE0" transform="translate(96,109)"/>
<path d="M0 0 C0.33 0 0.66 0 1 0 C1 2.97 1 5.94 1 9 C0.01 9 -0.98 9 -2 9 C-3 6 -3 6 -1.5625 2.8125 C-1.046875 1.884375 -0.53125 0.95625 0 0 Z " fill="#F0ECE3" transform="translate(58,94)"/>
<path d="M0 0 C1.32 0.33 2.64 0.66 4 1 C3.67 2.65 3.34 4.3 3 6 C2.01 6 1.02 6 0 6 C0 4.02 0 2.04 0 0 Z " fill="#F5F1E8" transform="translate(69,97)"/>
<path d="M0 0 C1.32 0.33 2.64 0.66 4 1 C3.67 2.65 3.34 4.3 3 6 C2.01 6 1.02 6 0 6 C0 4.02 0 2.04 0 0 Z " fill="#F2EEE4" transform="translate(81,91)"/>
<path d="M0 0 C2.31 0 4.62 0 7 0 C6.67 1.32 6.34 2.64 6 4 C3.03 3.505 3.03 3.505 0 3 C0 2.01 0 1.02 0 0 Z " fill="#FDFBF8" transform="translate(75,104)"/>
<path d="M0 0 C0.99 0 1.98 0 3 0 C3.125 2.375 3.125 2.375 3 5 C0.8614515 7.1385485 -0.13275314 7.42655063 -3 8 C-2.34 7.67 -1.68 7.34 -1 7 C-0.59270772 4.67843403 -0.25561323 2.3431213 0 0 Z " fill="#E1DCD0" transform="translate(112,95)"/>
<path d="M0 0 C0.33 0.66 0.66 1.32 1 2 C1.66 2.33 2.32 2.66 3 3 C3 4.65 3 6.3 3 8 C2.01 8.33 1.02 8.66 0 9 C0 6.03 0 3.06 0 0 Z " fill="#F8FAF4" transform="translate(113,57)"/>
</svg>
